<svg width="439" height="109" viewBox="0 0 439 109" fill="none" xmlns="http://www.w3.org/2000/svg">
<path d="M79.7153 92.6475C79.6488 92.6344 79.6214 92.6016 79.5687 92.5097C79.455 92.1861 79.6413 92.0164 79.7632 91.8274C80.3895 90.8566 80.3852 90.0836 79.728 89.1545C79.438 88.7445 79.2166 88.2988 78.977 87.7907C79.1786 89.2186 78.7501 90.4192 77.9997 91.5369C77.5971 92.1365 77.5551 92.1429 77.1687 91.5456C77.1375 91.4973 77.1002 91.4538 76.9942 91.4193C76.7953 91.9417 76.6281 92.4907 76.2249 92.9582C76.0671 92.9929 75.941 93.002 75.7675 93.0065C75.5999 92.825 75.7097 92.6714 75.7722 92.5147C76.2984 91.1946 76.4165 89.7929 76.5954 88.3603C76.5946 88.2836 76.5966 88.2502 76.6003 88.2169C76.6089 88.1399 76.6155 88.2458 76.6115 88.1685C76.6093 88.1241 76.6037 88.1276 76.596 88.2128C76.4806 89.5796 75.8996 90.7159 75.0804 91.7359C74.7089 92.1986 74.2002 92.5473 73.8918 93.1243C73.8141 93.1685 73.7646 93.1798 73.6777 93.1811C73.4658 93.0073 73.4557 92.7884 73.4696 92.5775C73.5291 91.6696 73.253 90.7715 73.4145 89.9036C73.3638 90.9056 72.8978 91.8138 72.4943 92.7407C72.4586 92.8227 72.3993 92.9298 72.284 92.8994C72.126 92.8578 72.1164 92.7026 72.0869 92.5742C71.7613 91.1558 71.2189 89.7787 71.2973 88.5926C71.383 89.6065 71.5976 90.9243 71.2583 92.2417C71.22 92.3905 71.2196 92.5489 71.1553 92.6924C71.0702 92.8824 70.942 93.0193 70.7168 93.0099C70.4765 92.9999 70.393 92.8298 70.3539 92.626C70.2855 92.2695 70.2357 91.9105 70.2398 91.6815C70.2569 91.8205 70.2183 92.0905 70.167 92.3559C70.1075 92.6644 69.899 92.8137 69.5876 92.8175C69.257 92.8214 69.0937 92.6387 69.0545 92.3261C69.0305 92.1348 68.9634 91.9481 68.9883 91.8227C68.9843 91.8969 69.0135 92.044 68.9966 92.1876C68.9649 92.4553 68.8096 92.5761 68.5522 92.4594C67.9609 92.191 67.4041 91.899 67.3444 91.1252C67.3105 90.6846 67.2177 90.2466 67.1095 89.8144C67.2073 90.2579 67.2823 90.7051 67.353 91.153C67.374 91.2861 67.4208 91.4171 67.3932 91.5543C67.3627 91.7059 67.3429 91.8782 67.147 91.8999C66.9796 91.9184 66.9275 91.7731 66.8661 91.6524C66.7985 91.5194 66.8 91.3625 66.7186 91.2205C66.7459 91.8133 66.2725 92.2014 66.147 92.7242C66.1241 92.8195 66.0129 92.8631 65.9069 92.8228C65.7839 92.7761 65.7425 92.662 65.7241 92.5471C65.6692 92.2037 65.6491 91.856 65.5791 91.5137C65.508 91.1662 65.44 90.8358 65.0775 90.652C64.8983 90.561 64.8185 90.366 64.7725 90.1751C64.6207 89.5462 64.3883 88.9403 64.2563 88.3294C64.2704 88.5796 64.3549 88.8366 64.4194 89.0984C64.4871 89.3733 64.5278 89.6422 64.1588 89.753C63.9111 89.8275 63.9448 90.0492 63.9409 90.2367C63.931 90.7201 63.939 91.2038 63.9366 91.6874C63.9357 91.8614 63.9381 92.0358 63.9023 92.2075C63.85 92.4583 63.7052 92.6511 63.4516 92.676C63.1425 92.7065 63.1282 92.4141 63.1263 92.2293C63.1122 90.8287 62.3903 89.646 61.9728 88.3704C61.9389 88.3 61.8946 88.4102 61.9557 88.3628C61.9678 88.3534 61.9785 88.3686 61.9945 88.4056C62.1922 88.8622 62.2445 89.3363 62.152 89.8236C61.97 90.7819 61.7975 91.737 62.3792 92.6348C62.4454 92.737 62.4476 92.8608 62.3269 92.9412C62.2197 93.0126 62.1052 92.9985 61.9987 92.9355C61.7993 92.8176 61.7203 92.6137 61.6641 92.4098C61.1837 90.6651 60.1808 89.2384 58.9722 87.9306C58.6221 87.5518 58.3468 87.119 58.291 86.6807C58.5139 87.4676 58.2894 88.3154 58.0976 89.1633C58.0199 89.5068 57.7739 89.545 57.6318 89.2631C57.1545 88.3164 56.2858 87.624 56.0212 86.8474C56.1562 87.3661 56.3127 88.133 56.1956 88.939C56.1203 89.4571 56.1239 89.9827 56.2601 90.4952C56.5118 91.4414 56.5331 92.4059 56.505 93.3751C56.5016 93.4913 56.5 93.6084 56.4673 93.7204C56.4292 93.8505 56.3897 94.0002 56.216 93.9885C56.0328 93.9761 56.0094 93.8132 56.0288 93.6843C56.1388 92.9508 55.8828 92.2273 55.9947 91.4979C55.8654 92.5269 55.7403 93.555 55.0984 94.4721C54.9759 94.5091 54.8866 94.5179 54.7529 94.5182C54.5177 94.32 54.558 94.0856 54.585 93.8558C54.6799 93.0473 54.6836 92.2396 54.5734 91.4321C54.5472 91.2406 54.4984 91.0343 54.5833 90.8597C54.8956 90.2174 54.729 89.5824 54.579 88.9017C54.5258 88.7955 54.5879 88.8734 54.5413 88.8117C54.5033 88.7614 54.4745 88.7037 54.4233 88.6641C54.4636 88.7025 54.4926 88.7505 54.5506 88.826C54.8909 89.8193 54.6984 90.7183 54.2561 91.5884C54.1687 91.7604 54.0885 91.9869 53.8709 91.9725C53.6036 91.9549 53.5877 91.6789 53.5578 91.4846C53.4313 90.6634 53.5428 89.8289 53.4386 89.0047C53.4151 88.8188 53.4549 88.6258 53.3828 88.4577C53.5782 89.6177 53.4004 90.7716 53.1939 91.9222C53.1455 92.1916 52.9739 92.4139 52.8128 92.6309C52.7002 92.7825 52.5961 92.9726 52.3664 92.9474C52.1213 92.9206 52.1973 92.6492 52.0637 92.4834C52.2763 93.3078 52.2505 93.4001 51.6215 93.7942C51.3114 93.9884 51.1819 94.3255 50.9148 94.6066C50.8311 94.6367 50.7779 94.6362 50.685 94.6292C50.418 94.3572 50.5941 94.0653 50.5942 93.786C50.5944 93.3844 50.6147 92.9826 50.5862 92.5967C50.5132 92.5688 50.4827 92.582 50.4504 92.6132C50.3028 92.7557 50.225 93.0619 50.0002 93.01C49.744 92.9509 49.7823 92.6326 49.7268 92.4161C49.6595 92.1543 49.6449 91.8811 49.5755 91.5931C49.419 92.2174 49.4105 92.8307 49.4196 93.4459C49.4222 93.6197 49.4272 93.7953 49.3821 93.9653C49.3467 94.0991 49.2991 94.2361 49.125 94.2271C48.9863 94.2198 48.9351 94.1059 48.9054 93.9912C48.6543 93.0209 48.1784 92.1213 48.0078 91.0843C47.7241 91.4994 47.6432 91.9754 47.4621 92.3876C47.2087 92.964 46.6849 93.1629 46.3429 93.583C46.1349 93.8386 45.9523 93.7628 45.8533 93.4517C45.6861 92.9261 45.7394 92.3831 45.7191 91.7998C45.5676 92.207 45.6072 92.5892 45.579 92.9639C45.5592 93.2274 45.4815 93.3776 45.1598 93.4769C44.7783 93.5947 44.3933 93.8038 44.079 94.0895C43.9221 94.232 43.7809 94.3956 43.5331 94.4784C43.2009 94.4458 43.212 94.2098 43.1867 94.0032C43.1063 93.3471 43.1073 93.3453 42.4912 93.6532C42.2465 93.7754 41.9944 93.8675 41.7178 93.8694C41.2427 93.8727 41.1214 93.7243 41.2608 93.2747C41.3978 92.8326 41.4909 92.3782 41.6469 91.9402C41.3412 92.6858 40.8604 93.3134 40.332 93.908C40.2458 94.005 40.144 94.1369 39.9944 94.0658C39.846 93.9953 39.8431 93.8222 39.9086 93.71C40.301 93.0369 40.3325 92.2272 40.7195 91.5529C40.5992 91.7453 40.4338 91.906 40.2991 92.0917C40.1361 92.3163 40.2462 92.583 40.1867 92.8237C40.1536 92.958 40.1066 93.1017 39.9848 93.164C39.2931 93.5179 38.7034 94.1507 37.8644 94.112C37.2271 94.0826 36.8234 94.4154 36.4101 94.7912C36.3099 94.8824 36.21 94.9725 36.0589 95.0635C35.8257 95.1023 35.625 95.117 35.3748 95.1223C35.0922 94.7387 35.1283 94.305 35.064 93.8951C35.0194 93.6114 35.0138 93.3221 34.7568 93.0663C34.1564 93.809 33.5901 94.5721 32.8074 95.185C32.7229 95.2184 32.6697 95.2268 32.577 95.226C31.8406 94.8524 31.8408 94.8524 31.9982 93.9555C32.0376 93.7308 32.0505 93.5039 32.055 93.2411C31.221 94.0127 30.2696 94.5735 29.3068 95.1764C28.9646 95.0103 29.1148 94.7662 29.1791 94.5634C29.3965 93.879 29.4838 93.1696 29.617 92.4576C29.0713 93.1925 28.2834 93.6634 27.6806 94.328C27.5424 94.4803 27.364 94.6723 27.1334 94.5559C26.8801 94.4281 26.949 94.1619 26.9655 93.9325C27.0271 93.0775 27.6158 92.4643 27.9356 91.7781C27.7342 92.0829 27.5673 92.4625 27.3389 92.8072C27.2115 92.9995 27.0751 93.1428 26.8327 93.1258C26.5593 93.1067 26.546 92.8747 26.4535 92.6825C26.0692 91.8842 25.8332 91.041 25.5651 90.2C25.1704 88.9622 25.1648 87.7341 25.5346 86.5542C25.8982 85.394 25.8084 84.3125 25.4828 83.2015C24.5381 79.9781 24.9069 76.9297 26.7025 74.0755C27.5703 72.6961 28.6079 71.4463 29.7222 70.263C32.3451 67.4775 35.0219 64.7449 37.5047 61.8267C38.6789 60.4467 39.9764 59.165 41.2261 57.8469C42.6918 56.3008 43.9993 54.6232 45.3963 53.0209C46.2736 52.0147 47.0636 50.9393 47.8819 49.8863C48.1724 49.5126 48.3884 49.1091 48.4194 48.582C48.3812 47.7116 48.6047 46.8886 48.4576 46.058C48.3199 45.2802 48.2399 45.2292 47.5238 45.5303C47.4347 45.5677 47.3482 45.6113 47.2156 45.6608C46.3448 45.7371 45.619 46.119 44.8717 46.426C43.7953 46.8684 42.6926 47.1862 41.5387 47.371C39.9592 47.624 38.3705 47.8333 36.8103 48.1962C36.3306 48.3077 35.9163 48.2453 35.6245 47.8287C34.8517 46.7253 33.7923 45.9164 32.7938 45.0453C32.0462 44.3931 31.1825 44.3629 30.2964 44.6719C29.8615 44.8236 29.4362 45.0123 29.0178 45.2145C26.7265 46.3216 24.029 44.6171 24.0139 42.0605C24.0121 41.7515 23.9887 41.44 24.0231 41.1342C24.0688 40.7287 23.9235 40.4616 23.5084 40.2903C23.4256 40.1989 23.3879 40.13 23.3908 40.0504C23.4254 39.0905 24.7992 38.0574 25.726 38.3198C26.432 38.5197 27.1003 38.8265 27.7448 39.1773C28.1709 39.4092 28.6117 39.6005 29.081 39.7185C29.2956 39.7725 29.5279 39.8673 29.7327 39.6579C29.6457 39.3844 29.3906 39.3615 29.1856 39.2901C28.621 39.0935 28.0557 38.9021 27.5101 38.6545C26.5682 38.2271 25.5952 37.9514 24.5425 38.048C24.1955 38.0799 23.8495 38.0256 23.4742 37.8959C23.4061 37.8635 23.38 37.848 23.3208 37.8013C23.1048 37.4772 22.9761 37.1573 22.7902 36.8617C22.4257 36.2825 22.7324 35.7511 23.0483 35.2028C23.1976 34.8421 23.2849 34.5113 23.3516 34.1672C23.5869 32.9526 24.2069 31.9158 25.0977 31.0981C25.5216 30.7089 26.0659 30.4097 26.5581 30.0733C27.0827 29.7147 27.6345 29.3871 27.9372 28.7854C28.0036 28.6534 28.1218 28.5038 28.304 28.5804C28.5054 28.6651 28.4824 28.8584 28.4477 29.0315C28.4054 29.2419 28.2918 29.4252 28.1996 29.6162C28.0401 29.9465 27.8649 30.2689 27.7042 30.5986C27.645 30.7199 27.5888 30.8663 27.7168 30.9707C27.8487 31.0782 27.9736 30.9739 28.0824 30.8993C28.3695 30.7023 28.6383 30.4869 28.8533 30.2052C29.0391 29.9616 29.2233 29.7055 29.5827 29.6126C29.8475 29.7657 29.7181 30.052 29.8832 30.2699C30.3063 29.9328 30.5856 29.4927 30.939 29.0001C30.5501 28.9868 30.3189 29.2536 29.9813 29.2495C29.5693 29.0516 29.5343 28.652 29.3833 28.3275C29.0444 27.5992 28.8726 27.5225 28.1274 27.7852C27.7181 27.9295 27.3654 28.1583 27.0542 28.4561C26.8028 28.6968 26.5679 28.9547 26.31 29.1881C26.1444 29.3379 25.9713 29.584 25.7203 29.4266C25.468 29.2684 25.4872 28.9482 25.6121 28.7435C26.1023 27.9399 26.4359 26.9669 27.6356 26.9102C29.3532 26.8289 30.4677 25.8217 31.3019 24.4182C31.4791 24.1199 31.6308 23.8016 31.8916 23.5618C31.9927 23.4688 32.1153 23.3932 32.2593 23.4643C32.4047 23.5361 32.4112 23.6789 32.3976 23.816C32.3688 24.1058 32.3054 24.3936 32.2046 24.6625C31.9481 25.3469 32.0122 26.0169 32.3672 26.6194C32.7864 27.3309 32.6803 27.9357 32.1866 28.5348C32.1298 28.6037 32.052 28.6816 32.1072 28.7932C32.1084 28.792 33.8238 27.0254 33.8238 27.0254C34.1283 26.4269 33.9593 25.6507 33.4228 25.1841C32.8604 24.6949 32.8284 24.446 33.3635 23.9116C33.7441 23.5315 35.0605 22.6761 34.8064 22.1129L34.3629 21.6694L33.4758 21.2258C33.0323 21.2258 32.9186 21.5211 33.0323 21.2258C33.1168 21.0063 33.0583 20.5444 33.0179 20.2741C33.0689 19.7195 32.6645 19.478 32.365 19.209C31.3145 18.2651 31.2606 17.1213 31.6444 15.8829C31.7899 15.4134 32.0863 15.0174 32.4736 14.7283C32.7611 14.5137 32.9688 14.2565 33.1869 13.9354C33.557 13.7621 33.9069 13.7973 34.25 13.8436C35.208 13.9731 36.1293 13.8082 37.0361 13.5198C37.5396 13.3597 37.931 13.0708 38.0913 12.5361C38.1497 12.3412 38.2679 12.1243 38.4713 12.1508C39.3147 12.2603 39.4905 11.562 39.7379 11.0558C39.9152 10.6929 40.1033 10.4131 40.4216 10.1704C40.8665 9.8313 41.2432 9.40991 41.6133 8.98861C41.7807 8.79797 41.9462 8.57027 42.1931 8.52525C43.1766 8.34585 43.719 7.51981 44.4588 6.99158C44.7705 6.769 45.0562 6.54283 45.4147 6.38384C46.1859 6.04185 46.8729 5.54068 47.6486 5.18895C48.171 4.95211 48.658 4.7287 49.2379 4.75413C49.5862 4.76939 49.9229 4.71119 50.2662 4.62891C50.7508 4.51281 51.1071 4.27193 51.3591 3.8501C51.6014 3.44458 51.9746 3.22074 52.4272 3.11637C52.8849 3.01084 53.3078 2.82958 53.6819 2.54104C53.7738 2.47019 53.8688 2.39112 53.9803 2.36551C55.2845 2.06596 56.5416 1.58253 57.9413 1.74947C59.6101 1.94848 61.1897 2.39978 62.7116 3.07914C63.4098 3.39084 63.8777 4.0217 64.4867 4.46334C65.0342 4.86039 65.5528 5.29119 66.2125 5.50148C66.5317 5.60323 66.7838 5.82584 67.0257 6.04666C67.5599 6.53425 68.1579 6.91653 68.8642 7.21199C70.9321 8.12271 72.2676 9.59308 72.683 11.8104C72.7871 12.3661 73.1276 12.743 73.5148 13.0984C73.9692 13.5155 74.32 13.9465 73.9504 14.6073C73.8323 14.8183 73.9631 15.0161 74.0895 15.1954C74.8226 16.2348 75.3019 17.3816 75.5977 18.6186C75.7276 19.1619 76.0476 19.6425 76.2666 20.1581C76.519 20.752 76.43 20.8954 75.7883 20.9948C75.2513 21.078 74.7162 21.133 74.3794 21.0748C74.9194 21.235 75.6791 21.3636 76.3652 21.7244C76.7231 21.9126 77.1502 22.1008 77.1619 22.5635C77.1722 22.9671 76.7302 23.0451 76.4088 23.2255C76.8762 23.5445 77.3492 23.7779 77.7098 24.1563C77.9267 24.3838 78.3258 24.584 78.1737 24.9482C78.0357 25.2789 77.6286 25.1433 77.3308 25.1633C77.0201 25.1841 76.7156 25.1128 76.4084 25.0781C76.1865 25.053 75.9526 25.0124 75.6914 25.2025C76.3445 25.5355 77.0241 25.6922 77.6467 25.9845C78.0243 26.1618 78.2785 26.4211 78.4305 26.7927C78.5514 27.0884 78.4513 27.3359 78.1311 27.3342C77.1094 27.3285 76.125 27.7727 75.0908 27.5649C76.1206 27.7728 77.1221 28.0425 77.9532 28.7341C78.102 28.8579 78.2557 28.977 78.3834 29.1223C78.5328 29.2924 78.7609 29.4553 78.646 29.7163C78.5448 29.9464 78.2895 29.9104 78.0812 29.9212C77.7157 29.9402 77.3484 29.9069 76.9569 29.9534C77.5603 30.1654 78.1415 30.3619 78.701 30.6137C79.0053 30.7506 79.2879 30.9176 79.4195 31.2996C79.3736 31.9952 78.5588 32.743 77.8199 32.8094C77.5716 32.8317 77.3213 32.8315 77.0648 32.8049C77.6652 33.1381 78.2968 33.4167 78.7625 33.9979C78.8078 34.1139 78.8123 34.1961 78.8145 34.3201C78.8132 34.3894 78.8109 34.4172 78.7978 34.4856C78.7293 34.6611 78.6332 34.7605 78.4672 34.8471C77.1191 34.9811 75.808 34.8784 74.4999 34.9177C75.361 35.2626 75.9877 35.9648 76.7369 36.4954C76.9002 36.611 77.0189 36.7751 76.9371 36.9931C76.864 37.1881 76.677 37.2045 76.5036 37.2231C76.2543 37.2499 76.0024 37.2258 75.6883 37.2507C75.8242 37.394 75.9705 37.407 76.0943 37.4522C77.1489 37.8375 78.0343 38.4707 78.7933 39.2891C79.226 39.7556 79.1788 40.0383 78.6345 40.4028C78.4288 40.5405 78.1745 40.6026 77.9875 40.8187C78.1829 41.1433 78.5691 41.2635 78.8031 41.5945C78.8376 41.6513 78.8502 41.6745 78.8984 41.7672C78.9465 41.8592 78.9591 41.8818 78.9915 41.9379C79.0242 41.9943 79.0371 42.0171 79.0677 42.0753C79.1174 42.1852 79.1382 42.2621 79.1287 42.3834C78.9692 42.6948 78.684 42.7237 78.429 42.7986C78.0761 42.9022 77.99 43.0758 78.2301 43.3829C78.4453 43.6581 78.6598 43.9287 78.9602 44.1198C79.172 44.2546 79.3845 44.3901 79.5827 44.5446C80.1367 44.9762 80.1256 45.2757 79.5475 45.6506C79.0298 45.9864 78.4747 46.2542 77.9439 46.5269C78.4017 46.7765 78.8786 46.9141 79.4291 46.8606C79.7705 46.8274 80.0809 47.0704 80.3808 47.3248C80.4253 47.3744 80.4421 47.3949 80.5053 47.4796C80.5665 47.5655 80.5813 47.5873 80.6173 47.6426C80.651 47.6996 80.6636 47.723 80.6916 47.7833C80.7418 47.9227 80.7672 48.0269 80.7599 48.1757C80.5582 48.5903 80.1396 48.6578 79.8399 48.887C79.5576 49.1028 79.0408 49.3326 79.1488 49.6335C79.2763 49.989 79.7914 49.7818 80.1389 49.7392C80.8863 49.6476 81.482 49.9528 81.8309 50.6728C81.7647 50.9026 81.5817 50.9774 81.4227 51.1281C81.3144 51.2148 81.2319 51.2725 81.1307 51.3679C81.0799 51.407 81.0581 51.421 81.0005 51.4517C80.5766 51.5853 80.2476 51.8365 79.8241 51.9712C79.662 52.0742 79.543 52.1749 79.3065 52.2094C79.5389 52.1901 79.6517 52.0929 79.8094 51.9945C80.1691 51.8594 80.4672 51.654 80.8776 51.7062C81.0697 51.7559 81.2063 51.828 81.3375 51.9092C81.9759 52.3048 82.0125 52.6977 81.4492 53.1736C81.1909 53.3918 80.9207 53.5961 80.6636 53.8873C81.3005 53.9978 81.863 53.6078 82.4642 53.9025C82.9627 54.4328 82.9519 54.5596 82.4032 54.9648C82.2944 55.0451 82.1816 55.12 82.0483 55.237C81.6945 55.4993 81.3135 55.647 80.9236 55.9937C81.6237 56.1333 82.2422 56.0475 82.8943 56.0607C83.1072 56.0276 83.2649 55.9384 83.4388 55.9235C83.7092 55.9005 83.9532 55.9924 84.0878 56.2248C84.2352 56.4794 84.0409 56.6707 83.8703 56.8236C83.4366 57.2121 82.9387 57.5106 82.3867 57.8349C82.9316 57.7642 83.4272 57.8504 83.9271 57.8479C84.2426 57.8463 84.5692 57.908 84.71 58.2377C84.8509 58.5678 84.5922 58.7753 84.3976 58.9874C84.0849 59.3282 83.7039 59.5371 83.1204 59.5778C83.7531 59.5552 84.2548 59.4328 84.7636 59.3603C85.3186 59.2813 85.3951 59.3957 85.1627 59.9031C85.1028 60.034 85.0444 60.1672 85.161 60.2774C85.5879 60.6803 85.3024 61.0033 85.0566 61.3339C84.9535 61.4725 84.8039 61.5691 84.6747 61.7602C85.263 61.6954 85.7391 61.7869 85.8562 62.4556C85.8749 62.5627 85.9926 62.6399 86.0776 62.7189C86.3557 62.9774 86.5086 63.2758 86.3288 63.6495C86.1394 64.0433 85.8603 64.3119 85.3921 64.2315C85.6487 64.2986 85.9365 64.2775 86.2109 64.3461C86.3685 64.3855 86.5279 64.4628 86.5146 64.6433C86.5031 64.8001 86.3316 64.8139 86.2012 64.8478C86.0012 64.8998 85.7801 64.8102 85.5882 64.9311C85.6125 65.0913 85.748 65.1503 85.8394 65.2413C86.4779 65.8772 86.4873 65.8819 85.9515 66.6098C85.7842 66.8372 85.8071 66.9823 86.0299 67.1331C86.3526 67.3514 86.6301 67.624 86.8751 67.9234C87.2711 68.4072 87.1423 68.7727 86.5349 68.9428C86.355 68.9931 86.152 68.9877 85.9827 69.1617C86.1797 69.4923 86.5687 69.6363 86.7402 69.957C87.1116 70.6513 87.3662 71.4087 87.8707 72.0312C87.9057 72.0745 87.9253 72.1402 87.922 72.1956C87.8533 73.345 88.1726 74.4924 87.9398 75.6425C87.9088 75.7953 87.8659 75.9437 87.7868 76.0784C87.5645 76.457 87.3424 76.4606 87.1015 76.1006C86.8106 75.666 86.566 75.2092 86.4055 74.7095C86.6286 75.3541 87.0032 75.9072 87.3702 76.4782C87.6731 76.9494 87.825 77.5349 87.8488 78.1315C87.8941 79.2694 87.9378 80.408 88.0587 81.5415C88.073 81.6766 88.0771 81.8123 88.0563 81.9467C88.0182 82.1925 87.9275 82.4103 87.6395 82.4209C87.3779 82.4307 87.2717 82.2261 87.2157 82.0148C87.0622 81.4354 86.8919 80.8603 86.7575 80.2758C86.5236 79.2584 86.3323 78.2307 86.0169 77.2329C85.9527 77.0299 85.9204 76.8187 85.972 76.6002C85.8725 78.9454 86.0632 81.2587 86.6743 83.5302C86.7487 83.8069 86.9303 84.2189 86.5533 84.3542C86.1101 84.5132 86.0613 84.0307 85.932 83.7569C85.5109 82.8659 85.1194 81.9615 84.9083 81.4127C85.2224 83.1396 85.5098 85.2763 86.1422 87.3456C86.3835 88.1351 86.1018 88.9122 85.6737 89.6122C85.6234 89.6945 85.5659 89.7752 85.4981 89.8425C85.2775 90.0615 85.2508 90.5739 84.8555 90.4861C84.509 90.409 84.5476 89.9436 84.4483 89.6452C84.1797 88.8379 83.9785 88.0155 83.8954 87.1601C83.8175 86.3574 83.455 85.6282 83.1713 84.882C83.4106 85.6096 83.8038 86.2893 83.8259 87.121C83.7916 87.186 83.7729 87.2093 83.7105 87.2419C83.3996 87.157 83.3598 86.8674 83.1287 86.629C83.0591 87.0103 83.102 87.345 83.0915 87.674C83.0624 88.5809 83.1538 89.4906 83.0288 90.3951C83.0077 90.548 82.9818 90.7013 82.932 90.8482C82.8941 90.96 82.842 91.0769 82.7097 91.0878C82.54 91.1019 82.4639 90.9685 82.4475 90.8331C82.2918 89.5451 81.5341 88.4557 81.2569 87.2084C81.246 87.1594 81.2163 87.1128 81.2498 87.1687C81.5001 88.4168 81.6958 89.7734 81.1528 91.1042C80.8821 91.7676 80.5131 92.3891 79.7153 92.6475Z" fill="#00FFFF"/>
<path d="M79.7261 92.684C81.3258 91.5272 81.4512 89.8588 81.2489 88.0868C81.1878 87.5516 81.0711 87.0228 81.048 86.4739C81.5448 87.9916 82.4421 89.3586 82.6543 91.1468C82.8426 90.6108 82.9219 90.2234 82.9215 89.8157C82.9202 88.755 82.9191 87.6943 82.9259 86.6337C82.9268 86.4944 82.8478 86.2844 83.0565 86.2442C83.2075 86.2152 83.2561 86.3976 83.3183 86.5141C83.4363 86.7349 83.5511 86.9574 83.7025 87.2004C83.7849 86.4745 83.3645 85.8571 83.1685 85.1776C83.0964 84.9275 82.9917 84.6869 82.9629 84.4239C84.1325 86.246 84.0679 88.4521 84.8609 90.3769C85.6535 89.5762 86.3273 88.3131 85.9197 87.0627C85.3879 85.4309 85.0738 83.7491 84.8804 82.0418C84.8201 81.5103 84.6045 80.9974 84.6824 80.4319C85.0169 81.2189 85.352 82.0056 85.6857 82.793C85.8587 83.2013 86.0242 83.6129 86.2037 84.0183C86.2614 84.1486 86.3002 84.3616 86.5085 84.2844C86.7014 84.213 86.6194 84.031 86.5891 83.8821C86.3709 82.8084 86.1363 81.7375 85.9416 80.6595C85.6751 79.1835 85.8984 77.6932 85.8063 76.1444C86.1708 76.407 86.0222 76.757 86.113 77.0289C86.6446 78.6206 86.8851 80.2868 87.3356 81.8999C87.3867 82.0832 87.4007 82.3325 87.6477 82.3167C87.9389 82.2981 87.9282 82.0311 87.9092 81.8219C87.787 80.4791 87.7572 79.13 87.6483 77.7882C87.6061 77.2679 87.3965 76.7333 87.0525 76.2702C86.5871 75.6435 86.4178 74.8524 85.8713 74.1203C86.331 74.1978 86.4316 74.4537 86.5004 74.6961C86.6453 75.2068 86.9528 75.6263 87.2132 76.0734C87.3446 76.2991 87.5136 76.3733 87.6103 76.0827C87.82 75.4523 88.0777 74.8164 87.7781 74.136C87.5783 73.6823 87.8351 73.2346 87.816 72.7759C87.7974 72.3282 87.7308 71.943 87.419 71.6178C87.1627 71.3504 86.9914 71.0637 86.9261 70.6729C86.8243 70.063 86.2906 69.7369 85.8748 69.3418C85.7853 69.2567 85.5937 69.2223 85.6573 69.0452C85.7099 68.8987 85.8789 68.9263 85.9987 68.8762C86.3178 68.7426 86.8193 68.9408 86.9497 68.5047C87.0786 68.0737 86.5943 67.9146 86.3755 67.6412C86.2318 67.4617 86.0626 67.2963 85.8391 67.2075C85.4577 67.056 85.4395 66.8788 85.7347 66.5819C86.3518 65.9612 86.3401 65.9469 85.6914 65.3275C85.5804 65.2215 85.4552 65.13 85.333 65.0364C85.2566 64.9779 85.1602 64.925 85.1932 64.813C85.2276 64.6961 85.344 64.7101 85.437 64.7091C85.7629 64.7055 86.0888 64.7077 86.4146 64.7077C86.4219 64.6557 86.4291 64.6037 86.4363 64.5517C85.9112 64.4684 85.3861 64.385 84.8262 64.2962C84.9584 64.0499 85.1714 64.1171 85.3324 64.1309C85.7977 64.1709 86.0559 63.9222 86.2258 63.5398C86.4066 63.1327 86.1108 62.9404 85.8449 62.74C85.7988 62.7052 85.7092 62.6766 85.7075 62.6418C85.6584 61.6333 84.8765 61.9754 84.2874 61.9059C84.5754 61.5289 84.9881 61.3086 85.1689 60.8957C85.2167 60.7866 85.3509 60.6905 85.2231 60.5382C84.7838 60.0146 84.7871 60.0118 85.2869 59.4631C84.3882 59.5891 83.5431 59.7075 82.6284 59.8357C82.8093 59.4753 83.1261 59.435 83.3691 59.4027C83.8875 59.3338 84.1819 58.9839 84.499 58.6504C84.7701 58.3653 84.6827 58.1378 84.3163 58.0799C83.6385 57.9728 82.9531 57.9169 82.2672 58.0174C82.1574 58.0335 82.0541 58.102 81.8944 57.9715C82.3898 57.6506 82.8634 57.3453 83.3352 57.0373C83.4643 56.9531 83.6121 56.8811 83.7084 56.7672C83.8305 56.6227 84.1621 56.5137 83.9817 56.2843C83.8376 56.101 83.5736 55.9017 83.276 56.145C83.2086 56.2001 83.0971 56.2013 82.9632 56.2275C82.7745 56.0522 82.5442 56.0702 82.36 55.983C82.055 55.8386 81.7799 55.6714 81.9633 55.2186C82.0169 54.9139 82.2676 54.8927 82.4346 54.7861C82.769 54.5726 82.8167 54.3489 82.4741 54.0554C82.3439 53.5931 82.6742 53.6569 82.8892 53.6697C83.265 53.6923 83.6269 53.802 84.0081 53.9955C84.128 54.0695 84.1877 54.138 84.2502 54.2583C84.2999 54.5413 84.191 54.8361 84.5409 55.0018C84.6048 55.0671 84.6337 55.1106 84.6749 55.1926C84.7211 55.3376 84.8074 55.4022 84.9157 55.5045C85.6876 56.8361 86.1497 58.2565 86.6655 59.6492C87.4804 61.8491 87.9719 64.1362 88.3444 66.4499C88.4335 67.0034 88.6643 67.5241 88.769 68.1231C88.7693 68.3226 88.7781 68.4755 88.7842 68.6737C88.8357 69.0374 88.8972 69.3537 88.8957 69.6799C88.8928 70.3411 89.2048 70.8835 89.5799 71.4461C89.5751 71.7191 89.4572 71.9251 89.4274 72.1946C89.2979 72.8036 89.5612 73.2968 89.7256 73.8506C89.719 73.918 89.7115 73.9443 89.6794 74.0031C89.475 74.1298 89.3207 74.2291 89.487 74.4646C89.5854 74.6037 89.6525 74.7607 89.6871 74.9729C89.7143 75.3041 89.7142 75.5936 89.6789 75.9248C89.4679 76.5523 89.8855 76.9279 90.1759 77.4348C90.2143 77.5393 90.2186 77.5671 90.2212 77.6366C89.6222 78.0619 89.8033 78.5516 89.9672 79.0935C90.0776 79.4581 90.2543 79.9926 89.5003 79.9745C89.3265 79.9703 89.3727 80.1288 89.4021 80.2373C89.4526 80.4235 89.5066 80.6088 89.5611 80.7939C89.5993 80.9235 89.6866 81.0705 89.6438 81.1851C89.4562 81.6877 89.3574 82.1947 89.415 82.7334C89.4267 82.8429 89.3338 82.9759 89.2066 82.9773C88.7695 82.9822 88.8784 83.2443 88.9531 83.4881C89.0497 83.8033 89.1494 84.1216 89.1111 84.4526C89.0818 84.7051 89.203 85.076 88.6875 85.0154C88.4607 84.9888 88.5417 85.2471 88.5594 85.3736C88.6236 85.8334 88.6736 86.2922 88.6548 86.7572C88.6266 87.4564 88.4793 87.5346 87.8486 87.1469C87.8195 87.7072 87.9853 88.2266 88.0386 88.7575C88.0767 89.1383 88.044 89.485 87.4709 89.3957C87.3902 89.3775 87.3466 89.3786 87.289 89.427C87.2347 89.747 87.294 90.0295 87.3308 90.3149C87.3752 90.6592 87.3227 90.9533 86.8689 90.908C86.6287 90.884 86.5813 91.0437 86.518 91.2514C86.5114 91.3784 86.5147 91.466 86.5334 91.595C86.5497 91.7877 86.5051 91.8765 86.3259 91.9C84.1449 92.1858 81.9729 92.5452 79.7261 92.684Z" fill="#090A09"/>
<path d="M48.5374 48.5275C48.6192 49.0909 48.3817 49.5236 48.0825 49.8995C46.6328 51.7202 45.1869 53.545 43.6901 55.3267C42.6374 56.5797 41.5219 57.7815 40.4047 58.9784C38.5641 60.9503 36.7101 62.9074 34.9676 64.9705C33.9869 66.1317 32.8812 67.1884 31.8165 68.2773C29.8755 70.2623 27.9245 72.2502 26.5297 74.6717C24.9799 77.3623 24.7543 80.2346 25.6479 83.2032C25.9846 84.3219 26.0696 85.4131 25.6948 86.5844C25.3343 87.711 25.235 88.9183 25.724 90.0833C25.8269 90.3285 25.8624 90.6028 25.9215 90.8654C26.0165 91.2868 26.0139 91.7341 26.4026 92.0533C26.5544 92.1779 26.6197 92.4122 26.6209 92.6368C26.6218 92.7858 26.5899 92.9693 26.7967 93.0151C26.9975 93.0595 27.1187 92.9424 27.2099 92.7734C27.4115 92.4001 27.6139 92.0267 27.8302 91.6618C27.9211 91.5086 27.928 91.2805 28.213 91.2178C28.2025 91.8337 27.8245 92.2674 27.5442 92.72C27.2576 93.1828 27.1587 93.6776 27.0908 94.1924C27.0794 94.279 27.0983 94.4108 27.1555 94.4565C27.2739 94.5513 27.3733 94.4336 27.4417 94.3496C28.0634 93.5864 28.9967 93.1305 29.504 92.2553C29.5695 92.1422 29.6368 91.9677 29.7966 92.0654C29.9248 92.1437 29.8486 92.3061 29.8186 92.4385C29.6202 93.3145 29.4276 94.1917 29.2619 95.0949C29.3322 95.1598 29.3478 95.2074 29.3157 95.2941C26.6826 95.4211 24.075 95.5166 21.4674 95.6133C20.9459 95.6326 20.4246 95.656 19.853 95.681C20.6836 94.4803 21.3641 93.1522 22.1478 91.8879C22.5043 91.3128 22.8138 90.7084 23.1453 90.0757C23.4282 89.2522 23.8251 88.5231 24.2108 87.7915C24.5188 87.2076 24.7483 86.5954 24.9819 85.9828C25.1889 85.4396 25.2073 84.8929 24.9999 84.3423C24.8572 83.9635 24.7619 83.5711 24.7046 83.1276C24.6956 82.9365 24.6813 82.7888 24.6532 82.611C24.2252 82.283 24.2938 81.7898 24.1484 81.3334C24.09 80.9329 24.2271 80.5839 24.1784 80.1851C24.1942 79.8267 24.1955 79.5142 24.1892 79.15C24.0514 78.8817 24.1798 78.6849 24.2537 78.4432C24.2902 78.3502 24.3019 78.296 24.302 78.2015C24.2165 77.8419 24.2883 77.535 24.3781 77.187C25.062 74.8462 26.4575 72.9683 27.9297 71.1432C29.1938 69.5763 30.6262 68.162 32.0719 66.7652C33.3128 65.5664 34.3633 64.2011 35.5199 62.9296C36.3909 61.9722 37.1795 60.9428 38.1002 60.0294C40.0914 58.054 41.9503 55.9603 43.7145 53.7793C44.735 52.5178 45.878 51.3583 46.8845 50.0846C47.2879 49.574 47.7067 49.0617 47.9778 48.4107C48.2029 48.308 48.3754 48.3198 48.5374 48.5275Z" fill="#090907"/>
<path d="M55.1132 94.5067C55.357 93.6076 55.7228 92.7357 55.8056 91.7851C55.8269 91.5407 55.8775 91.2989 55.9687 91.0521C56.1141 91.9821 56.3219 92.905 56.1595 93.9008C56.3972 93.5286 56.4084 92.5428 56.2324 91.3297C56.1034 90.4404 55.9011 89.5742 56.0515 88.6417C56.1911 87.7767 55.909 86.9031 55.7154 86.0221C56.2335 87.2744 57.3 88.1443 57.8702 89.4513C58.1763 88.2488 58.3344 87.1624 58.0271 85.9993C58.3807 86.1324 58.3674 86.383 58.4055 86.5643C58.5092 87.0578 58.7595 87.4707 59.091 87.8193C60.3734 89.1681 61.3704 90.6786 61.8736 92.49C61.962 92.8081 61.9836 92.8021 62.311 92.8382C61.8092 92.1219 61.6862 91.3426 61.8808 90.4965C62.0823 89.6206 62.1152 88.7473 61.7423 87.8824C62.1807 88.2633 62.2572 88.8185 62.477 89.2958C62.7189 89.8212 62.9902 90.346 63.1321 90.9009C63.2683 91.4332 63.2551 92.0036 63.311 92.5938C63.6799 92.5131 63.7804 92.3056 63.7729 91.9774C63.757 91.2813 63.7586 90.5844 63.7734 89.8882C63.7778 89.6808 63.7237 89.3647 64.1512 89.5556C64.3221 89.6319 64.3936 89.5176 64.2937 89.2249C64.1317 88.7505 64.0698 88.2662 64.0683 87.7621C64.5124 88.3079 64.5652 89.0048 64.8059 89.6263C64.9588 90.0213 64.8235 90.6067 65.515 90.6392C65.6313 90.6447 65.6033 90.8313 65.6299 90.941C65.7717 91.5268 65.8813 92.1185 65.9473 92.7309C66.1014 92.0119 66.8159 91.4916 66.579 90.6561C66.995 90.953 66.8646 91.4605 67.15 91.8565C67.3454 91.2769 67.2695 90.771 67.0311 90.283C66.8966 90.0078 66.8712 89.7281 66.9276 89.4381C66.9396 89.3761 67.02 89.3273 67.0689 89.2725C67.1212 89.323 67.2065 89.3661 67.22 89.4254C67.2796 89.6872 67.3664 89.9554 67.3564 90.218C67.3207 91.16 67.5914 91.8901 68.5283 92.2945C68.8026 92.4128 68.8602 92.4047 68.8753 92.1218C68.8948 91.7546 68.8239 91.3766 68.9815 91.0178C69.1817 91.4454 69.0836 91.9099 69.2027 92.3477C69.277 92.6209 69.3878 92.6906 69.6335 92.6804C69.8913 92.6696 70.0138 92.5511 70.037 92.2905C70.067 91.9542 70.1243 91.6203 70.1909 91.1296C70.3848 91.6987 70.4721 92.1261 70.4999 92.5666C70.51 92.7255 70.5092 92.8891 70.7299 92.8968C70.9268 92.9037 71.0297 92.7548 71.0369 92.6081C71.0827 91.6736 71.4299 90.7734 71.2469 89.8048C71.1343 89.2089 71.226 88.5744 71.2877 87.9431C71.4304 89.5888 71.8856 91.1676 72.3285 92.7481C72.7782 91.701 73.2481 90.6202 73.3862 89.4183C73.4702 89.4276 73.5541 89.4369 73.6381 89.4463C73.6381 90.6504 73.6381 91.8544 73.6393 93.1148C71.7698 93.4388 69.8837 93.5509 68.0025 93.6995C65.4282 93.9029 62.8486 94.0399 60.2195 94.2186C60.149 94.2398 60.1303 94.2477 60.0825 94.2472C59.9897 94.236 59.9261 94.2331 59.8353 94.2477C59.7927 94.2922 59.7775 94.3192 59.7305 94.3121C58.1862 94.3564 56.6737 94.4348 55.1132 94.5067Z" fill="#090A09"/>
<path d="M43.4147 94.4895C43.8744 94.1615 44.1003 93.591 44.7371 93.5609C44.8933 93.5535 44.8161 93.2893 44.8676 93.1526C45.0838 93.0679 45.1185 93.5025 45.3413 93.3126C45.4923 93.1839 45.4242 92.9861 45.4244 92.8192C45.425 92.3039 45.4172 91.7898 45.8246 91.2157C45.9708 92.096 45.7614 92.8934 46.0475 93.5774C47.1905 92.9619 47.5789 91.8187 48.007 90.6599C48.2682 91.864 48.7908 92.9565 49.1196 94.1224C49.3477 94.0262 49.2553 93.8229 49.2508 93.6755C49.2282 92.9422 49.2932 92.2153 49.3725 91.4884C49.3894 91.3344 49.3823 91.1245 49.5692 91.1257C49.7954 91.1271 49.6979 91.358 49.7235 91.4935C49.8123 91.964 49.8952 92.4355 49.9894 92.9568C50.23 92.6841 50.3502 92.3445 50.7279 92.1123C50.7868 92.9515 50.8149 93.7396 50.6436 94.575C49.5185 94.7446 48.386 94.7355 47.2554 94.7684C45.9694 94.8058 44.6833 94.8356 43.3531 94.8514C43.2886 94.7174 43.2867 94.6045 43.4147 94.4895Z" fill="#090A09"/>
<path d="M43.4197 94.4275C43.4143 94.5646 43.3766 94.6615 43.324 94.7963C42.9864 94.6685 42.6997 95.012 42.3347 94.9109C41.8299 95.077 41.359 94.9796 40.8401 94.9796C40.724 94.9601 40.6611 94.9512 40.5708 94.9603C40.5255 94.9998 40.5076 95.0214 40.4597 95.0136C38.997 95.024 37.5645 95.0636 36.0792 95.0954C36.2761 94.5054 36.8203 94.0231 37.3037 93.9625C37.77 93.9041 38.2451 93.8389 38.715 93.7442C39.2091 93.6446 39.4005 93.0394 39.9478 93.0219C39.9946 93.0204 40.0991 92.7986 40.0685 92.7228C39.8544 92.1926 40.1813 91.8921 40.5238 91.6082C40.7198 91.4457 40.5863 91.1615 40.8335 91.0259C40.7483 92.0531 40.3987 93.0071 40.0499 94.0006C40.2559 93.7529 40.4714 93.5124 40.6653 93.2556C40.873 92.9806 41.1072 92.7241 41.2474 92.3999C41.3817 92.0892 41.539 91.7884 41.7534 91.5016C41.8419 92.1558 41.6041 92.7605 41.3968 93.3411C41.2631 93.7155 41.3523 93.7217 41.6501 93.7286C42.0827 93.7387 42.4223 93.5181 42.7687 93.3114C43.1651 93.0748 43.3732 93.1216 43.3407 93.6431C43.3254 93.8892 43.2866 94.145 43.4197 94.4275Z" fill="#090907"/>
<path d="M54.4802 88.7844C54.8641 89.0889 55.0933 90.1135 54.8425 90.5569C54.7386 90.7406 54.6887 90.9144 54.7189 91.0979C54.9009 92.204 54.8467 93.3073 54.7095 94.4605C53.4693 94.559 52.2301 94.6084 50.9376 94.6475C50.9742 94.1044 51.2054 93.7017 51.7832 93.5652C52.0398 93.5046 52.006 93.2481 52.0461 93.0431C52.1164 92.6836 51.8601 92.348 51.9652 91.9485C52.2415 92.2172 52.1232 92.6139 52.4451 92.9386C53.4789 91.3573 53.3576 89.6519 53.2328 87.9459C53.4929 88.2882 53.6339 88.9377 53.6678 89.8743C53.6921 90.544 53.5702 91.2259 53.8686 91.9911C54.2697 91.1346 54.7451 90.4017 54.5526 89.4629C54.5105 89.2574 54.5034 89.0446 54.4802 88.7844Z" fill="#090A09"/>
<path d="M76.2408 92.99C76.3043 92.3623 76.8225 91.8907 76.8107 91.2068C76.8069 90.9866 77.0848 91.1307 77.1594 91.2305C77.3065 91.4275 77.4036 91.6617 77.5449 91.924C78.0159 91.2665 78.3914 90.5824 78.6781 89.8295C78.9768 89.0454 78.7703 88.2355 78.9435 87.4263C79.2823 88.2026 79.8125 88.8611 80.1865 89.5964C80.5886 90.3867 80.4308 91.2112 79.8851 91.9351C79.7694 92.0886 79.665 92.2505 79.5494 92.4296C79.4566 92.7597 79.2057 92.7776 78.9472 92.7962C78.0607 92.8598 77.1746 92.929 76.2408 92.99Z" fill="#090A09"/>
<path d="M73.9161 93.1617C73.8053 92.8068 73.9866 92.561 74.2417 92.3717C75.4661 91.4627 75.8936 90.0579 76.492 88.7616C76.5595 88.6155 76.5248 88.4223 76.5385 88.2024C76.5585 88.1393 76.5776 88.1246 76.6255 88.1316C76.7267 89.4632 76.4807 90.7326 76.1652 91.9932C76.0807 92.3307 75.9116 92.629 75.7259 92.962C75.1362 93.0568 74.5524 93.1116 73.9161 93.1617Z" fill="#090A09"/>
<path d="M29.3422 95.3334C29.2904 95.2798 29.2904 95.2345 29.2906 95.1553C30.2145 94.2946 31.4041 93.8213 32.2924 92.899C32.2188 93.3805 32.1585 93.8645 32.0668 94.3424C32.0084 94.6465 31.7719 95.0095 32.3979 94.915C32.504 94.8989 32.5272 95.0343 32.5366 95.1746C31.4896 95.2584 30.4418 95.3001 29.3422 95.3334Z" fill="#090A09"/>
<path d="M32.8293 95.216C33.1151 94.5278 33.8184 94.1526 34.2084 93.5118C34.287 93.3827 34.4155 93.2826 34.4865 93.1505C34.5543 93.0245 34.4814 92.7853 34.6696 92.7689C34.8956 92.7492 34.9652 92.9871 35.0387 93.1557C35.2963 93.7469 35.267 94.3864 35.3262 95.0617C34.511 95.1492 33.6968 95.1855 32.8293 95.216Z" fill="#090A09"/>
<path d="M60.0569 94.2623C60.072 94.2322 60.0907 94.2255 60.1385 94.2254C60.15 94.2724 60.1323 94.3128 60.1147 94.3533C60.0966 94.3307 60.0786 94.3082 60.0569 94.2623Z" fill="#AFADAC"/>
<path d="M59.7099 94.3C59.7163 94.2695 59.7338 94.2609 59.7799 94.2588C59.7936 94.3061 59.7965 94.3744 59.7099 94.3Z" fill="#AFADAC"/>
<path d="M0.668793 101.45C0.67524 101.46 0.662345 101.439 0.668793 101.45Z" fill="#F2673D"/>
<path d="M9.20838 108.585C9.19772 108.589 9.18645 108.593 9.19065 108.59C9.20614 108.583 9.20776 108.584 9.20838 108.585Z" fill="#FF1309"/>
<path d="M18.5018 63.5557C18.5132 63.5338 18.5334 63.5313 18.581 63.5423C18.5757 63.5622 18.5432 63.5686 18.5018 63.5557Z" fill="#ACA8A6"/>
<path d="M5.20638 98.2C5.21598 98.1946 5.19678 98.2055 5.20638 98.2Z" fill="#BFAEA7"/>
<path d="M77.6636 20.3522C77.8116 20.5126 77.9233 20.6815 78.0797 20.778C79.2884 21.524 79.7468 22.7961 80.3413 23.9728C80.372 24.0335 80.3599 24.1158 80.3776 24.2795C79.9821 24.0988 79.6068 24.0851 79.194 24.0067C79.1045 24.019 79.0645 24.0363 79.0386 24.0873C79.8925 24.8096 80.5684 25.6371 81.0842 26.5955C81.1726 26.7597 81.3375 26.8916 81.2791 27.151C81.2664 27.1711 81.2793 27.1483 81.2729 27.1591C80.8814 26.8469 80.4015 26.8312 79.9493 26.7306C79.9082 26.7789 79.8672 26.8273 79.8262 26.8756C79.9592 26.9539 80.1001 27.0215 80.2239 27.1123C81.2759 27.8844 81.7451 29.0232 82.1618 30.1965C82.2639 30.4839 82.232 30.6093 81.893 30.5C81.6042 30.407 81.3091 30.333 80.9492 30.2315C81.1982 30.7695 80.9257 30.7707 80.5315 30.7123C80.237 30.6686 79.9308 30.7037 79.4507 30.7037C80.2505 31.1888 80.8955 31.586 81.5469 31.9727C81.8712 32.1652 81.7185 32.2246 81.4417 32.2938C81.2132 32.3887 81.0533 32.2852 80.9347 32.1713C80.4997 31.7534 79.9693 31.5552 79.3604 31.4163C79.2242 31.0953 79.0189 30.9112 78.7318 30.7988C78 30.5123 77.3003 30.1326 76.4187 30.0679C76.8089 29.6623 77.2443 29.8047 77.6368 29.7586C77.9494 29.7219 78.4435 29.9297 78.53 29.6334C78.6138 29.3463 78.1499 29.1068 77.8916 28.8861C77.0065 28.1295 75.9126 27.887 74.8102 27.6724C74.7189 27.6547 74.6293 27.6274 74.54 27.6009C74.5328 27.5988 74.534 27.5686 74.531 27.5509C74.5476 27.4462 74.6401 27.4398 74.7068 27.4476C75.8149 27.5771 76.8861 27.2077 77.9838 27.2099C78.3725 27.2106 78.4459 27.1235 78.2526 26.7333C77.9387 26.0995 77.3042 26.0557 76.7822 25.8133C76.2977 25.5883 75.7471 25.5079 75.274 25.1247C75.7197 24.8719 76.1615 24.8222 76.6117 24.9383C77.0155 25.0424 77.4193 24.984 77.8226 25.0003C77.9097 25.0039 78.0345 24.981 78.0798 24.9223C78.1732 24.8011 78.0443 24.7145 77.9708 24.6342C77.4833 24.102 76.9238 23.6657 76.256 23.3811C76.1468 23.3346 76.0109 23.3022 76.0173 23.1695C76.025 23.0113 76.1783 23.0427 76.2878 23.0299C76.3832 23.0188 76.495 23.034 76.5702 22.9888C76.7487 22.8813 77.0061 22.8197 77.061 22.6114C77.1243 22.3713 76.8728 22.2429 76.7165 22.1212C76.3318 21.8216 75.8856 21.6219 75.4081 21.53C74.8329 21.4192 74.3224 21.0732 73.6187 21.1537C73.8376 20.8716 74.0459 20.9324 74.2134 20.9469C74.8167 20.9992 75.4019 20.836 75.9984 20.8228C76.2702 20.8168 76.3425 20.691 76.2302 20.4486C76.1004 20.1684 75.9756 19.8857 75.8405 19.608C75.2634 18.4216 75.109 17.0676 74.3854 15.9395C74.2502 15.7287 74.139 15.495 73.9713 15.314C73.6861 15.0061 73.5727 14.728 73.8746 14.3547C74.0888 14.0898 74.0085 13.8136 73.7662 13.5814C73.5569 13.3807 73.3714 13.1516 73.146 12.9719C72.7393 12.6476 72.5761 12.2106 72.486 11.725C72.0974 9.63102 70.811 8.27764 68.9007 7.3884C69.1786 6.90809 69.579 7.1093 70.0084 7.19087C70.7575 7.4767 71.4819 7.84069 71.8639 8.47202C72.5352 9.58162 73.5814 10.2044 74.5694 10.9241C74.6941 11.0149 74.8136 11.1132 74.931 11.2132C74.9558 11.2343 74.9608 11.2786 74.9989 11.3696C74.4524 11.4093 73.9278 11.449 73.3452 11.4435C75.1107 12.1249 76.3047 13.3529 77.0305 15.1116C76.5271 15.074 76.071 15.04 75.4712 14.9952C76.3899 15.9414 77.7198 16.2914 78.1872 17.5423C77.7089 17.4777 77.2538 17.3843 76.7544 17.2805C76.6777 17.2922 76.642 17.3058 76.618 17.3357C76.7963 17.6936 77.1273 17.8395 77.4155 18.0118C78.4194 18.6121 78.8472 19.623 79.4098 20.6724C78.825 20.5304 78.3349 20.4114 77.7993 20.2847C77.7215 20.2999 77.6861 20.3163 77.6636 20.3522Z" fill="#090A09"/>
<path d="M81.7765 48.0717C81.8698 48.148 81.9247 48.2115 81.9828 48.3067C82.024 48.792 82.3033 49.1202 82.6061 49.4641C82.8292 49.7553 83.0126 50.0392 83.2082 50.3625C83.1623 50.6247 83.1955 50.8201 83.4297 50.9699C83.7411 51.557 84.0128 52.1414 84.2876 52.7694C84.2687 52.8343 84.2469 52.8556 84.1855 52.9001C83.7891 52.8274 83.5282 52.5724 83.1995 52.349C83.0546 52.3228 82.963 52.2741 82.8502 52.1794C82.4239 51.7579 82.0829 51.3185 81.7673 50.8131C81.4521 50.0843 80.8239 49.7551 80.1033 49.916C79.7795 49.9884 79.4549 49.9672 79.1309 49.9461C78.9915 49.937 78.8836 49.8375 78.8185 49.7151C78.7214 49.5326 78.9177 49.5045 78.9907 49.4089C79.4351 48.8265 80.1424 48.6065 80.7118 48.1335C80.7195 48.005 80.6954 47.9151 80.6374 47.7992C80.6213 47.7681 80.6066 47.749 80.5976 47.741C80.5728 47.7207 80.5568 47.7084 80.5225 47.6724C80.504 47.6486 80.4903 47.6326 80.4822 47.6258C80.4574 47.6057 80.4406 47.5922 80.4047 47.5528C79.9908 47.1842 79.6084 46.8885 79.0064 47.0371C78.5445 47.1512 78.1876 46.7798 77.7401 46.5507C78.2011 46.104 78.8204 46.004 79.2732 45.639C79.377 45.5553 79.5004 45.4945 79.6192 45.4314C80.0069 45.2255 79.9341 44.996 79.6443 44.7747C79.4154 44.5999 79.1828 44.4215 78.9283 44.2903C78.4766 44.0577 78.2425 43.6226 77.9277 43.2662C77.6708 42.9753 77.9141 42.8196 78.1627 42.7116C78.4562 42.584 78.8184 42.6309 79.0721 42.3209C79.0529 42.2441 79.0325 42.2005 79.0122 42.1161C78.9959 42.0827 78.9811 42.0615 78.9718 42.0525C78.947 42.0317 78.9315 42.0199 78.8983 41.9849C78.8806 41.9617 78.8657 41.9444 78.857 41.937C78.8318 41.9169 78.8155 41.9041 78.7816 41.8654C78.5391 41.3339 77.9795 41.1976 77.6035 40.7733C77.9679 40.5745 78.3227 40.37 78.6874 40.1852C79.0525 40.0003 79.0505 39.773 78.7909 39.5056C77.9286 38.6175 76.9871 37.8511 75.7566 37.5236C75.5771 37.4759 75.2989 37.4218 75.3358 37.2094C75.378 36.9667 75.66 37.0984 75.8358 37.0828C76.0655 37.0625 76.2984 37.0813 76.5297 37.0766C76.66 37.074 76.8222 37.1016 76.8599 36.9241C76.8933 36.7664 76.771 36.6875 76.6525 36.6121C75.8305 36.0893 75.2005 35.2812 74.2258 34.9826C74.1227 34.951 74.0004 34.8794 74.0498 34.732C74.0781 34.6473 74.168 34.6571 74.246 34.668C75.6274 34.8603 77.0161 34.7044 78.4548 34.7537C78.641 34.6884 78.7763 34.6526 78.9773 34.7491C78.8766 34.9602 78.8993 35.041 79.1242 35.1406C79.6329 35.366 80.2018 35.5458 80.6018 35.905C81.2511 36.488 82.012 37.0233 82.2403 37.9552C82.2831 38.13 82.3593 38.2777 82.519 38.424C82.5309 38.4366 82.4996 38.4344 82.5155 38.4345C81.9451 38.547 81.3297 38.25 80.7003 38.461C80.2874 38.5995 79.8353 38.6171 79.4063 38.7134C79.206 38.7583 79.3879 38.8366 79.4473 38.9282C79.7641 39.3433 80.0772 39.6774 80.6076 39.7125C81.0656 39.7428 81.3567 40.0906 81.6436 40.3816C81.8811 40.6226 81.7623 40.9147 81.5296 41.1449C81.3548 41.3177 81.1211 41.346 80.8684 41.4464C80.5818 41.482 80.3296 41.473 80.0834 41.5073C79.8779 41.5359 80.0478 41.6218 80.107 41.709C80.2494 42.2582 80.539 42.7522 80.3046 43.3277C80.2128 43.5532 80.2802 43.8306 80.4722 44.0232C81.0261 44.5789 80.8467 45.1641 80.5561 45.8106C80.8322 45.776 81.1074 45.7135 81.3818 45.7603C81.7577 45.8244 82.0513 46.0148 82.0793 46.4127C82.1042 46.7646 82.0417 47.1213 81.5733 47.1791C81.2709 47.2164 81.3276 47.4345 81.3852 47.6133C81.4445 47.7969 81.5817 47.9408 81.7765 48.0717Z" fill="#090A09"/>
<path d="M70.0298 7.15598C69.7186 7.46815 69.297 7.06034 68.9166 7.33952C68.3931 7.20544 67.9138 7.02436 67.5536 6.66729C66.8746 5.99413 65.9957 5.65254 65.2 5.17312C64.4629 4.72906 63.836 4.14561 63.1876 3.58886C63.0426 3.46427 62.8969 3.3233 62.7259 3.24861C60.7512 2.3862 58.711 1.8206 56.5289 1.89728C56.175 1.90972 55.8616 2.06785 55.542 2.12771C54.5509 2.31334 53.7025 2.81226 52.787 3.16101C52.191 3.38805 51.6448 3.56656 51.3288 4.17191C51.0007 4.80054 50.326 4.85054 49.7575 4.89407C48.9434 4.9564 48.2409 5.1402 47.4702 5.47663C46.621 5.84732 45.9371 6.51831 44.9913 6.74144C44.664 6.81866 44.2848 7.3247 43.9293 7.63483C43.8133 7.73609 43.6986 7.83967 43.5763 7.9329C43.1935 8.22455 42.9225 8.68489 42.3223 8.63883C42.1245 8.62365 41.9479 8.8531 41.7833 9.03153C41.2906 9.56553 40.8609 10.1752 40.1882 10.5209C40.1098 10.5613 39.9918 10.6657 40.0026 10.7173C40.1362 11.3547 39.4232 11.5888 39.3415 12.1384C39.2996 12.4202 38.9758 12.3824 38.7528 12.3072C38.4443 12.2031 38.2572 12.2587 38.2313 12.609C38.1965 13.0804 37.852 13.3506 37.4987 13.507C36.4758 13.9598 35.3991 14.1642 34.2697 13.9998C33.9661 13.9556 33.6523 13.9814 33.29 13.9751C33.1276 13.9072 33.0833 13.8016 33.0615 13.6365C33.3985 13.4497 33.7402 13.3068 34.1248 13.1658C34.229 13.1643 34.2884 13.1531 34.3695 13.1082C34.5571 13.0727 34.7182 13.0523 34.9279 13.0375C35.041 13.0445 35.102 13.0329 35.1828 12.9788C35.411 12.9072 35.6132 12.8535 35.8602 12.805C36.29 12.8893 36.6389 12.7243 37.0337 12.6248C38.7799 10.7166 40.5961 8.94235 42.5979 7.35956C43.8449 6.37361 45.2147 5.57576 46.5667 4.75952C47.3061 4.31312 48.0898 3.86322 48.9909 3.76025C49.1322 3.74411 49.2521 3.69326 49.3546 3.5997C50.3188 2.71924 51.5052 2.30998 52.7115 1.86957C54.5084 1.21353 56.3324 0.918988 58.2248 0.998372C59.9338 1.07006 61.4765 1.65022 63.0158 2.40349C64.992 3.37055 66.5033 4.88845 68.1533 6.25157C68.2931 6.36709 68.4418 6.4802 68.6068 6.48704C69.1665 6.51027 69.5684 6.85185 70.0298 7.15598Z" fill="#151413"/>
<path d="M23.5492 31.9801C23.8404 31.5234 24.1418 31.0995 24.4452 30.677C24.7074 30.3118 24.8906 29.9511 24.848 29.4542C24.8157 29.0761 24.8375 28.8875 24.2898 29.3175C24.9093 27.7827 25.4781 26.4739 27.0168 25.9569C27.3266 25.8528 27.6473 25.7543 27.9699 25.7218C28.5645 25.6618 29.0321 25.4459 29.303 24.8392C29.382 24.617 29.5387 24.5982 29.7359 24.5716C30.2097 24.4623 30.4838 24.1356 30.7995 23.8572C31.4437 23.2892 32.2932 22.8796 32.8885 22.2169C33.2178 22.3364 33.5962 23.2778 33.9194 23.4436C33.9194 23.8871 33.9653 23.6399 33.3808 24.1267C32.9487 24.4867 33.0115 24.6807 33.4726 25.0113C33.9678 25.3664 34.168 25.9043 34.1462 26.472C34.1238 27.0538 33.8644 27.5641 33.247 27.7638C33.0395 27.8309 32.9403 27.9401 32.8614 28.1411C32.7641 28.3887 32.6075 28.6157 32.4582 28.8393C32.3122 29.0579 32.0471 29.1712 31.8587 29.0207C31.6334 28.8408 31.8899 28.6497 32.0089 28.5009C32.4428 27.9585 32.71 27.4623 32.2322 26.7449C31.7357 25.9994 31.8332 25.1404 32.1243 24.3029C32.2041 24.0733 32.4319 23.6749 32.2018 23.5864C31.8994 23.47 31.7729 23.9163 31.6533 24.1451C31.2727 24.8731 30.7522 25.4944 30.1999 26.0787C29.5111 26.8072 28.5415 26.9418 27.6081 27.0766C27.0882 27.1518 26.6587 27.2451 26.4094 27.7897C26.2144 28.2156 25.7225 28.4812 25.691 29.01C25.6837 29.132 25.623 29.3034 25.7976 29.3609C25.9248 29.4028 25.9985 29.275 26.0814 29.1997C26.5374 28.7854 26.9186 28.295 27.4378 27.9422C27.801 27.6954 28.2096 27.5931 28.6106 27.4656C28.938 27.3616 29.1667 27.5294 29.307 27.8294C29.5109 28.2654 29.7169 28.7005 29.9539 29.1609C30.0639 29.4288 29.9495 29.5706 29.6941 29.6515C29.0629 29.9913 28.8116 30.6938 28.2016 31.0234C27.9895 31.1381 27.7859 31.3961 27.5422 31.1625C27.3311 30.9603 27.4381 30.715 27.5745 30.4792C27.8057 30.0793 28.01 29.6635 28.2154 29.2493C28.3057 29.0673 28.4458 28.8823 28.2962 28.662C28.2558 28.6675 28.1979 28.6599 28.1871 28.679C27.523 29.8497 26.3356 30.3789 25.2929 31.1005C24.7835 31.4529 24.428 32.0258 24.1248 32.5766C23.8027 33.1618 23.5101 33.772 23.4655 34.4679C23.4512 34.6914 23.3346 34.9084 23.2582 35.1726C22.7644 35.1009 22.898 34.7375 22.9773 34.4424C23.0878 34.0312 23.0932 33.6507 22.8726 33.24C22.9154 32.8751 23.0515 32.5978 23.264 32.3148C23.4463 32.2612 23.5437 32.1769 23.5492 31.9801Z" fill="#090A09"/>
<path d="M47.0889 45.9921C45.4202 47.0823 43.6587 47.8213 41.7474 48.2257C40.2507 48.5423 38.7299 48.6289 37.2173 48.7949C36.3527 48.8898 35.6668 49.4321 34.8639 49.6755C34.7651 49.7055 34.6767 49.7701 34.5195 49.852C35.0884 48.9337 34.8851 47.9529 34.2505 47.1276C33.4583 46.0972 32.2931 45.657 31.2763 44.9794C31.0498 44.8285 30.9815 45.0713 30.8586 45.1587C29.4275 46.177 27.9021 46.5265 26.2131 45.8606C24.3564 45.1286 23.2867 43.5104 23.3736 41.5231C23.3913 41.1182 23.4293 40.7143 23.4524 40.254C24.009 40.2321 24.3494 40.4224 24.1921 41.0895C24.123 41.3825 24.2205 41.7114 24.1738 42.0135C23.9109 43.7144 26.1062 45.6516 27.7705 45.4428C28.5403 45.3462 29.195 44.9637 29.8653 44.6549C31.2417 44.0209 32.384 44.2947 33.4123 45.321C34.2446 46.1516 35.2199 46.8449 35.8557 47.8653C36.0283 48.1422 36.3114 48.1518 36.5805 48.0845C38.4452 47.6188 40.3571 47.4198 42.2433 47.0757C43.5681 46.8341 44.7709 46.2683 46.0044 45.7794C46.3488 45.6429 46.6883 45.5144 47.116 45.5514C47.2933 45.7028 47.2232 45.8343 47.0889 45.9921Z" fill="#090A09"/>
<path d="M79.3252 31.431C80.2024 31.2224 80.7291 31.8435 81.3726 32.2969C81.4247 32.4431 81.5368 32.4792 81.6507 32.5595C81.6897 32.7952 81.9835 32.8208 81.9847 33.084C81.9987 33.208 82.0147 33.2903 82.0433 33.4131C82.0003 33.6176 82.064 33.8098 81.9067 33.9884C81.687 34.0194 81.4985 34.0194 81.2857 34.0194C81.5946 34.4322 81.4693 34.6629 81.0002 34.6893C80.3467 34.7262 79.7082 34.9116 79.0451 34.8279C78.9397 34.6972 78.8165 34.6318 78.769 34.4501C78.7566 34.4119 78.7495 34.399 78.7451 34.3932C78.7012 34.3472 78.6864 34.2989 78.718 34.2123C78.2138 33.4618 77.3681 33.1935 76.5019 32.6641C77.0134 32.6641 77.3659 32.67 77.7181 32.6628C78.3137 32.6505 79.0915 32.0701 79.3252 31.431Z" fill="#090A09"/>
<path d="M33.0168 13.5999C33.1769 13.6526 33.2318 13.7522 33.2354 13.9295C33.1963 14.7191 32.4176 14.8541 32.0777 15.3769C31.3587 16.4828 31.4262 18.0292 32.3636 18.967C32.5817 19.1852 32.7968 19.4067 33.0196 19.6201C33.1863 19.7798 33.2988 19.9443 33.1347 20.212C32.5121 20.0202 32.0599 19.5454 31.5 19.234C30.9491 18.9277 30.7636 18.3387 30.6534 17.7298C30.2865 15.7016 31.0608 14.3145 33.0168 13.5999Z" fill="#090A09"/>
<path d="M23.4603 40.1571C23.4469 40.1981 23.4057 40.2248 23.3968 40.2335C23.1013 40.6106 22.9563 40.5034 22.8368 40.106C22.6559 39.5045 22.7979 38.9666 23.0801 38.4392C23.1788 38.2547 23.2604 38.0609 23.3452 37.8304C25.6057 37.6481 27.6405 38.4743 29.6726 39.3048C29.8357 39.3714 30.1063 39.421 30.0477 39.6708C29.987 39.9293 29.7423 40.0053 29.4904 39.9739C28.8502 39.894 28.2514 39.6703 27.7048 39.3424C27.1039 38.9819 26.4499 38.7517 25.8077 38.4958C25.2332 38.2668 24.7071 38.4153 24.296 38.8822C23.9676 39.2551 23.5889 39.5992 23.4603 40.1571Z" fill="#090A09"/>
<path d="M81.722 50.7775C82.2842 51.0796 82.4822 51.6752 82.9124 52.1073C83.0076 52.2345 83.0539 52.3498 83.1255 52.4929C83.4575 53.0354 83.7702 53.5463 84.0779 54.0988C83.709 54.0367 83.347 53.9257 82.9805 53.8324C82.8032 53.7873 82.6045 53.7139 82.4668 53.9796C81.9391 53.7659 81.4443 54.0759 80.9369 54.0914C80.7521 54.097 80.5225 54.2357 80.4178 54.0189C80.2997 53.7742 80.5782 53.719 80.7148 53.6018C80.905 53.4388 81.081 53.2575 81.281 53.1079C81.906 52.6404 81.9023 52.4251 81.244 52.0268C81.1615 51.9769 81.0769 51.9305 80.9691 51.8517C80.9143 51.6782 80.9135 51.5401 81.0343 51.3841C81.0614 51.3516 81.0637 51.3542 81.0625 51.3531C81.1261 51.2925 81.188 51.23 81.272 51.1429C81.3835 50.9592 81.4957 50.8265 81.722 50.7775Z" fill="#090A09"/>
<path d="M22.8537 33.2252C23.3663 33.4964 23.3131 33.923 23.1632 34.3726C23.074 34.64 22.9458 34.9088 23.2193 35.1917C22.9278 35.6972 22.5303 36.2243 22.9176 36.778C23.1293 37.0807 23.2718 37.366 23.3534 37.7528C22.8025 37.8197 22.2858 37.6901 21.785 37.4677C21.5877 37.3801 21.4312 37.2644 21.4842 37.0406C21.5952 36.5716 21.7233 36.0631 22.0766 35.7524C22.3079 35.5491 22.3525 35.3799 22.3555 35.1314C22.3633 34.4691 22.4886 33.8358 22.8537 33.2252Z" fill="#090A09"/>
<path d="M47.0969 46.0326C47.0881 45.8917 47.1228 45.762 47.1614 45.592C48.2371 44.8627 48.4663 44.953 48.6559 46.1668C48.697 46.4302 48.683 46.7046 48.6733 46.9732C48.6549 47.479 48.6213 47.9842 48.5761 48.5296C48.3884 48.4708 48.2061 48.4343 47.9635 48.4635C47.6571 47.6589 47.3987 46.8514 47.0969 46.0326Z" fill="#151413"/>
<path d="M29.6483 29.6936C29.8262 29.5694 29.8699 29.3944 29.9708 29.2191C30.2626 29.048 30.5342 28.8981 30.818 28.7766C31.0249 28.688 31.2167 28.7608 31.0991 29.0038C30.8206 29.5792 30.3527 30.0257 29.9425 30.5064C29.8184 30.6517 29.6532 30.5286 29.6443 30.3247C29.6358 30.1318 29.644 29.9382 29.6483 29.6936Z" fill="#090A09"/>
<path d="M81.9501 55.187C81.937 55.5847 82.1323 55.8065 82.5143 55.8712C82.696 55.902 82.859 55.9335 82.915 56.1854C82.3047 56.2269 81.6888 56.2295 81.0729 56.2231C80.9182 56.2215 80.7287 56.1888 80.6806 56.0375C80.62 55.8471 80.8445 55.7974 80.9571 55.7252C81.2627 55.5293 81.5902 55.3677 81.9501 55.187Z" fill="#090A09"/>
<path d="M34.5159 92.1915C34.6113 91.6877 34.7062 91.231 34.8011 90.7743C35.0723 91.318 34.9694 91.8443 34.8214 92.3672C34.7949 92.4607 34.7144 92.5417 34.6038 92.4913C34.5021 92.445 34.522 92.3317 34.5159 92.1915Z" fill="#090907"/>
<path d="M86.0498 71.8262C86.3251 71.9578 86.5759 72.051 86.8086 72.1775C86.9783 72.2697 87.0535 72.4573 86.9285 72.6125C86.803 72.7683 86.6968 72.5867 86.6065 72.5101C86.3602 72.301 86.0167 72.2303 85.8203 71.9516C85.7637 71.8714 85.6978 71.7814 85.8187 71.7229C85.862 71.7019 85.95 71.773 86.0498 71.8262Z" fill="#090907"/>
<path d="M81.0167 51.3517C81.0435 51.4895 81.0256 51.6273 80.9764 51.793C80.5621 51.7704 80.2426 52.0117 79.834 52.0541C79.7734 52.0359 79.7582 52.0158 79.7647 51.9649C80.1616 51.6992 80.5036 51.3967 81.0167 51.3517Z" fill="#090A09"/>
<path d="M79.7455 51.9388C79.7867 51.9543 79.787 51.9746 79.7879 52.0254C79.6625 52.4206 79.3127 52.3317 78.9681 52.4977C79.1486 52.0969 79.459 52.0648 79.7455 51.9388Z" fill="#090A09"/>
<path d="M33.9194 21.2258C33.7002 21.3582 33.2792 22.505 33.0323 22.5565C32.8001 22.5565 32.9039 21.396 33.0323 21.2258C33.1819 21.2085 33.8777 21.0197 33.9194 21.2258Z" fill="#090A09"/>
<path d="M78.7377 34.4418C78.8876 34.4711 78.9508 34.5856 79.021 34.7463C79.0416 34.7816 79.0339 34.7853 79.0332 34.79C78.9019 34.782 78.7713 34.7692 78.5749 34.7551C78.5791 34.6597 78.649 34.5658 78.7377 34.4418Z" fill="#090A09"/>
<path d="M76.6827 88.129C76.6543 88.1532 76.5969 88.1534 76.5682 88.1537C76.5527 88.0165 76.5011 87.7928 76.6811 87.7994C76.8349 87.805 76.7572 87.9918 76.6827 88.129Z" fill="#090907"/>
<path d="M54.4804 88.6945C54.3422 88.6625 54.2357 88.5706 54.2774 88.3949C54.2809 88.38 54.3436 88.3604 54.3634 88.3712C54.4757 88.4328 54.4741 88.5469 54.4804 88.6945Z" fill="#090A09"/>
<path d="M80.6166 47.8057C80.7332 47.8323 80.8511 47.8933 80.7557 48.078C80.6246 48.0452 80.6064 47.9498 80.6166 47.8057Z" fill="#090A09"/>
<path d="M81.2583 51.1253C81.2863 51.2252 81.2575 51.317 81.0987 51.3476C81.0713 51.247 81.1035 51.1581 81.2583 51.1253Z" fill="#090A09"/>
<path d="M78.994 42.1125C79.0259 42.1295 79.0558 42.1762 79.0868 42.2521C79.0559 42.2349 79.024 42.1886 78.994 42.1125Z" fill="#090A09"/>
<path d="M78.7196 34.1966C78.743 34.2271 78.7428 34.2731 78.7417 34.3531C78.6573 34.3464 78.6316 34.2907 78.7196 34.1966Z" fill="#090A09"/>
<path d="M78.7846 87.1391C78.7863 87.1111 78.8012 87.0958 78.8162 87.0806C78.8101 87.1044 78.804 87.1282 78.7846 87.1391Z" fill="#090A09"/>
<path d="M80.5115 47.6685C80.532 47.6564 80.5545 47.6722 80.5804 47.7145C80.5591 47.7286 80.5358 47.7137 80.5115 47.6685Z" fill="#090A09"/>
<path d="M80.3933 47.5481C80.414 47.5377 80.4373 47.5555 80.4651 47.5997C80.443 47.6133 80.4185 47.5967 80.3933 47.5481Z" fill="#090A09"/>
<path d="M78.8876 41.9811C78.9079 41.9689 78.9299 41.9841 78.9546 42.0255C78.9336 42.0397 78.9108 42.0254 78.8876 41.9811Z" fill="#090A09"/>
<path d="M78.7705 41.8608C78.7913 41.8506 78.8135 41.868 78.8397 41.9109C78.8175 41.9249 78.7936 41.9089 78.7705 41.8608Z" fill="#090A09"/>
<path d="M85.7716 74.046C85.7775 74.0558 85.7657 74.0363 85.7716 74.046Z" fill="#090A09"/>
<path d="M90.1263 76.1859C89.9535 76.1755 89.7861 76.1158 89.5754 76.0441C89.5374 75.6763 89.5427 75.3205 89.5563 74.9093C89.7889 75.0076 90.0132 75.1612 90.2662 75.3447C90.2405 75.6285 90.1861 75.8826 90.1263 76.1859Z" fill="#1B1918"/>
<path d="M84.1905 54.3899C84.3194 54.5627 84.4313 54.7749 84.5453 55.028C84.0976 55.0456 84.032 54.7979 84.1905 54.3899Z" fill="#090A09"/>
<path d="M84.6096 55.2442C84.6797 55.287 84.73 55.372 84.7819 55.4942C84.6454 55.508 84.5538 55.4477 84.6096 55.2442Z" fill="#090A09"/>
<path d="M85.7222 59.7383C85.8125 59.7111 85.9474 59.7222 85.8892 59.8439C85.8478 59.9303 85.7708 59.8291 85.7222 59.7383Z" fill="#1B1918"/>
<path d="M83.7356 87.2232C83.7844 87.2638 83.878 87.2937 83.7785 87.3748C83.7638 87.3442 83.749 87.3136 83.7318 87.2558C83.7293 87.2287 83.7334 87.2249 83.7356 87.2232Z" fill="#1B1918"/>
<path d="M87.3261 89.1532C87.2903 89.1951 87.2389 89.1963 87.149 89.198C87.1057 89.0039 87.1857 89.0062 87.3261 89.1532Z" fill="#A5A19E"/>
<path d="M85.6958 59.7215C85.6749 59.7043 85.6647 59.6771 85.6544 59.65C85.67 59.6525 85.6856 59.655 85.7138 59.6739C85.7264 59.6903 85.7064 59.7115 85.6958 59.7215Z" fill="#1B1918"/>
<path d="M90.0883 77.5196C90.1222 77.5032 90.1892 77.4815 90.1375 77.5763C90.118 77.5887 90.0924 77.5447 90.0883 77.5196Z" fill="#B4B5C6"/>
<path d="M40.3096 94.6644C40.3127 94.6523 40.3002 94.6869 40.3002 94.6869C40.3002 94.6869 40.3065 94.6765 40.3096 94.6644Z" fill="#969495"/>
<path d="M40.3157 94.6555C40.3163 94.6564 40.3116 94.6392 40.3117 94.6466C40.3118 94.654 40.315 94.6545 40.3157 94.6555Z" fill="#969495"/>
<path d="M81.8024 48.0503C81.2877 48.0382 81.1571 47.6968 81.1812 47.2369C81.1906 47.0567 81.2552 46.8995 81.4567 46.9844C81.9166 47.1782 81.867 46.7959 81.9379 46.5737C82.0566 46.202 81.7822 46.0065 81.5142 45.9346C81.2323 45.8589 80.9015 45.8086 80.6208 46.0021C80.5227 46.0697 80.4278 46.1648 80.3225 46.0543C80.214 45.9403 80.2579 45.8181 80.3466 45.6927C80.7412 45.1345 80.712 44.6331 80.3803 44.0868C80.1864 43.7675 79.7794 43.3998 80.2893 42.9882C80.3258 42.9587 80.3276 42.8066 80.2942 42.7826C79.9197 42.5122 80.1653 42.1468 80.1346 41.7805C81.4629 41.9082 82.365 42.7241 83.1086 43.7517C82.2313 44.1166 81.32 43.4206 80.3065 43.693C81.383 44.7823 82.4109 45.7986 82.8768 47.212C82.977 47.516 83.0654 47.8239 83.1852 48.2147C82.6262 48.0108 82.2423 47.6634 81.7053 47.5633C81.5594 47.5669 81.5748 47.634 81.6141 47.7391C81.683 47.8546 81.7364 47.9353 81.8024 48.0503Z" fill="#090A09"/>
<path d="M80.8812 41.4824C80.883 41.1719 81.1891 41.2347 81.3623 41.1057C81.7226 40.8371 81.7262 40.5659 81.3617 40.3007C81.0297 40.0592 80.7327 39.8264 80.259 39.8354C79.8242 39.8436 79.6416 39.4034 79.4701 39.0027C80.9579 39.3218 81.9557 40.2791 82.7269 41.5728C82.0921 41.6928 81.5169 41.4694 80.8812 41.4824Z" fill="#090A09"/>
<path d="M82.6311 49.4316C82.0886 49.3233 81.9345 48.9071 81.9569 48.3656C82.1962 48.6896 82.4063 49.0407 82.6311 49.4316Z" fill="#090A09"/>
<path d="M37.0196 12.6013C36.7405 12.8738 36.4048 13.1061 35.9301 12.8416C36.2432 12.6502 36.6227 12.7011 37.0196 12.6013Z" fill="#090A09"/>
<path d="M82.0212 33.1127C81.8649 32.9803 81.6743 32.8851 81.6704 32.6229C81.9327 32.683 82.19 32.785 82.5389 32.9234C82.3049 33.0096 82.1823 33.0547 82.0212 33.1127Z" fill="#090A09"/>
<path d="M83.4624 50.9334C83.0477 50.9944 82.9506 50.8114 83.1796 50.4252C83.2987 50.566 83.3771 50.7302 83.4624 50.9334Z" fill="#090A09"/>
<path d="M81.9161 34.0293C81.8929 33.8424 81.8265 33.649 82.0166 33.4757C82.199 33.6786 82.4398 33.9204 81.9161 34.0293Z" fill="#090A09"/>
<path d="M23.5096 31.9682C23.8416 32.2235 23.5688 32.2415 23.3357 32.2931C23.3543 32.189 23.4177 32.0893 23.5096 31.9682Z" fill="#090A09"/>
<path d="M35.177 12.9589C35.1813 13.0612 35.1663 13.1801 34.9945 13.0684C35.0327 13.0143 35.0889 12.9856 35.177 12.9589Z" fill="#090A09"/>
<path d="M34.365 13.0874C34.3672 13.1905 34.3437 13.2963 34.185 13.1919C34.2231 13.139 34.2786 13.1104 34.365 13.0874Z" fill="#090A09"/>
<path d="M85.4785 55.0693C85.4664 55.0611 85.4524 55.0543 85.4383 55.0475C85.4489 55.0443 85.4596 55.041 85.4717 55.0561C85.4733 55.0745 85.4766 55.0709 85.4785 55.0693Z" fill="#B1B3B7"/>
<path d="M18.7246 53.213C18.7421 53.2301 18.7609 53.2462 18.7796 53.2623C18.7667 53.2575 18.7538 53.2526 18.7343 53.2287C18.7276 53.2095 18.7258 53.2119 18.7246 53.213Z" fill="#A2A09F"/>
<path d="M84.2523 52.8377C84.3234 52.9039 84.3501 52.9912 84.171 52.9457C84.1687 52.903 84.1913 52.8827 84.2523 52.8377Z" fill="#090A09"/>
<path d="M22.8613 30.8759C22.8507 30.8831 22.8453 30.8561 22.8453 30.8561C22.8453 30.8561 22.8719 30.8688 22.8613 30.8759Z" fill="#B4B5C6"/>
<path d="M81.2555 27.1874C81.2776 27.1646 81.3017 27.1349 81.3257 27.1052C81.3294 27.1144 81.3332 27.1236 81.3369 27.1329C81.3206 27.1347 81.3043 27.1366 81.2708 27.1658C81.2537 27.1932 81.2574 27.1804 81.2555 27.1874Z" fill="#090A09"/>
<path d="M25.3441 26.8636C25.3445 26.865 25.3387 26.8481 25.3401 26.8548C25.3415 26.8614 25.3436 26.8622 25.3441 26.8636Z" fill="#A2A09F"/>
<path d="M78.1565 17.5814C78.187 17.5363 78.2235 17.537 78.2347 17.5928C78.2463 17.6509 78.2145 17.6642 78.1656 17.5991C78.164 17.5711 78.1587 17.5777 78.1565 17.5814Z" fill="#090A09"/>
<path d="M89.6935 73.9547C89.7656 74.0065 89.8135 74.0772 89.6456 74.0413C89.6435 74.0023 89.6575 73.9884 89.6935 73.9547Z" fill="#090A09"/>
<path d="M32.3606 23.325C32.3659 23.3339 32.3554 23.316 32.3606 23.325Z" fill="#1B1918"/>
<path d="M110.881 37.1482H119.473C119.825 37.1482 120.129 37.1322 120.385 37.1002C120.673 37.0682 120.897 37.0202 121.057 36.9562C121.217 36.8922 121.345 36.8122 121.441 36.7162C121.537 36.5882 121.585 36.4602 121.585 36.3322C121.585 36.1402 121.521 35.9322 121.393 35.7082C121.265 35.4522 121.073 35.1642 120.817 34.8442C120.593 34.5242 120.337 34.2042 120.049 33.8842C119.761 33.5322 119.457 33.1642 119.137 32.7802L113.329 26.0602C113.009 25.7082 112.705 25.3402 112.417 24.9562C112.161 24.5402 111.921 24.1242 111.697 23.7082C111.473 23.2602 111.281 22.8282 111.121 22.4122C110.993 21.9642 110.881 21.5162 110.785 21.0682C110.753 20.9082 110.721 20.7642 110.689 20.6362C110.657 20.4762 110.641 20.3322 110.641 20.2042C110.609 20.0442 110.593 19.9002 110.593 19.7722C110.593 19.6122 110.593 19.4682 110.593 19.3402C110.593 18.4762 110.753 17.6602 111.073 16.8922C111.393 16.0922 111.873 15.3402 112.513 14.6362C113.153 13.9322 114.001 13.3722 115.057 12.9562C116.113 12.5402 117.377 12.2682 118.849 12.1402H128.401L130.609 19.5322H122.593C122.209 19.5322 121.873 19.5642 121.585 19.6282C121.297 19.6922 121.073 19.7722 120.913 19.8682C120.721 19.9642 120.577 20.0762 120.481 20.2042C120.417 20.3322 120.385 20.4762 120.385 20.6362C120.385 20.8922 120.465 21.1962 120.625 21.5482C120.817 21.8682 121.105 22.2362 121.489 22.6522C121.841 23.0682 122.241 23.5162 122.689 23.9962C123.137 24.4442 123.617 24.9242 124.129 25.4362L129.313 31.5802C129.345 31.6122 129.377 31.6442 129.409 31.6762C129.441 31.7082 129.473 31.7402 129.505 31.7722C129.505 31.8362 129.521 31.8842 129.553 31.9162C129.585 31.9482 129.617 31.9802 129.649 32.0122C129.713 32.0762 129.761 32.1402 129.793 32.2042C129.857 32.2682 129.905 32.3322 129.937 32.3962C130.225 32.8122 130.465 33.2282 130.657 33.6442C130.881 34.0602 131.057 34.4602 131.185 34.8442C131.313 35.2602 131.409 35.6602 131.473 36.0442C131.537 36.4282 131.569 36.7962 131.569 37.1482C131.569 37.9162 131.441 38.6522 131.185 39.3562C130.961 40.0282 130.625 40.6522 130.177 41.2282C129.729 41.8362 129.249 42.3642 128.737 42.8122C128.225 43.2282 127.697 43.5802 127.153 43.8682C126.929 43.9962 126.705 44.1082 126.481 44.2042C126.257 44.2682 126.049 44.3322 125.857 44.3962C125.633 44.4602 125.425 44.5082 125.233 44.5402C125.041 44.5722 124.849 44.5882 124.657 44.5882C124.625 44.5882 124.593 44.5882 124.561 44.5882C124.561 44.5882 124.561 44.5722 124.561 44.5402C124.529 44.5402 124.497 44.5402 124.465 44.5402C124.465 44.5402 124.465 44.5242 124.465 44.4922C124.433 44.4922 124.417 44.4922 124.417 44.4922H113.041L110.881 37.1482ZM135.164 44.4922V12.4282H143.804V44.4922H135.164ZM150.351 44.4922V12.4282H158.991V44.4922H150.351ZM164.771 44.4922V12.4282H173.411V37.1482H184.547L182.387 44.4922H164.771ZM191.094 44.4922L182.214 12.1402H191.382L196.086 33.4042L200.646 12.1402H209.91L200.982 44.4922H191.094ZM211.511 44.4922V12.4282H231.239L233.111 19.8682H220.151V24.4762H231.863L230.039 31.8682H220.151V37.1482H234.023L232.151 44.4922H211.511ZM235.575 19.5322L237.735 12.1402H253.719C255.287 12.1402 256.647 12.3482 257.799 12.7642C258.983 13.1802 259.975 13.8042 260.775 14.6362C261.543 15.4682 262.119 16.3642 262.503 17.3242C262.919 18.2842 263.127 19.3082 263.127 20.3962C263.127 20.6202 263.111 20.8442 263.079 21.0682C263.079 21.2922 263.063 21.5162 263.031 21.7402C262.999 21.9642 262.951 22.1882 262.887 22.4122C262.855 22.6362 262.807 22.8602 262.743 23.0842C262.519 23.8202 262.215 24.5562 261.831 25.2922C261.479 25.9962 261.031 26.7002 260.487 27.4042C259.943 28.1082 259.319 28.7642 258.615 29.3722C257.911 29.9482 257.127 30.4762 256.263 30.9562C256.327 31.1162 256.391 31.2762 256.455 31.4362C256.551 31.5962 256.647 31.7562 256.743 31.9162C256.807 32.0442 256.871 32.1882 256.935 32.3482C257.031 32.4762 257.111 32.6202 257.175 32.7802C257.239 32.9082 257.303 33.0522 257.367 33.2122C257.463 33.3402 257.559 33.4682 257.655 33.5962C257.719 33.7242 257.783 33.8522 257.847 33.9802C257.943 34.1082 258.023 34.2362 258.087 34.3642C258.151 34.4922 258.215 34.6202 258.279 34.7482C258.343 34.8442 258.423 34.9562 258.519 35.0842C258.583 35.2122 258.647 35.3402 258.711 35.4682C258.775 35.5642 258.839 35.6602 258.903 35.7562C259.063 35.9802 259.207 36.2042 259.335 36.4282C259.495 36.6522 259.639 36.8762 259.767 37.1002C260.119 37.6762 260.503 38.2522 260.919 38.8282C261.335 39.4042 261.767 39.9962 262.215 40.6042C262.663 41.2122 263.159 41.8682 263.703 42.5722C264.279 43.2762 264.887 43.9962 265.527 44.7322L258.423 49.7242C257.911 49.0842 257.415 48.4602 256.935 47.8522C256.455 47.2762 255.991 46.6682 255.543 46.0282C255.063 45.4202 254.599 44.8122 254.151 44.2042C253.735 43.5642 253.319 42.9242 252.903 42.2842C252.103 41.0362 251.351 39.8202 250.647 38.6362C249.943 37.4202 249.303 36.2362 248.727 35.0842C248.151 33.9322 247.639 32.8762 247.191 31.9162C246.743 30.9562 246.375 30.1242 246.087 29.4202C246.247 29.2602 246.455 29.0842 246.711 28.8922C246.967 28.6682 247.255 28.4442 247.575 28.2202C247.895 27.9962 248.215 27.7562 248.535 27.5002C248.887 27.2442 249.239 26.9722 249.591 26.6842C250.007 26.3642 250.407 26.0282 250.791 25.6762C251.175 25.2922 251.559 24.8922 251.943 24.4762C252.295 24.0602 252.599 23.6282 252.855 23.1802C253.111 22.7002 253.303 22.2042 253.431 21.6922V21.3082C253.431 21.0202 253.335 20.7642 253.143 20.5402C252.951 20.2842 252.663 20.0922 252.279 19.9642C251.895 19.8042 251.383 19.6922 250.743 19.6282C250.135 19.5642 249.399 19.5322 248.535 19.5322H235.575ZM237.447 44.4922V20.1562H245.751V44.4922H237.447ZM267.539 44.4922V20.4922H275.891V37.4842H281.075C281.651 37.4842 282.147 37.4522 282.563 37.3882C282.979 37.2922 283.299 37.1642 283.523 37.0042C283.779 36.8442 283.971 36.6682 284.099 36.4762C284.227 36.2522 284.291 36.0282 284.291 35.8042C284.291 35.5482 284.227 35.2762 284.099 34.9882C284.003 34.7002 283.843 34.3962 283.619 34.0762C283.395 33.7562 283.155 33.4362 282.899 33.1162C282.643 32.7642 282.339 32.4122 281.987 32.0602C281.827 31.9002 281.667 31.7562 281.507 31.6282C281.347 31.4682 281.187 31.3082 281.027 31.1482C280.835 31.0202 280.643 30.8762 280.451 30.7162C280.291 30.5562 280.115 30.4122 279.923 30.2842C279.539 29.9962 279.155 29.7082 278.771 29.4202C278.387 29.1322 278.003 28.8762 277.619 28.6522C277.491 28.5882 277.363 28.5242 277.235 28.4602C277.107 28.3962 276.979 28.3322 276.851 28.2682C276.723 28.2042 276.595 28.1402 276.467 28.0762C276.371 28.0122 276.275 27.9482 276.179 27.8842C276.339 27.7242 276.515 27.5802 276.707 27.4522C276.931 27.2922 277.155 27.1322 277.379 26.9722C277.603 26.8122 277.827 26.6362 278.051 26.4442C278.275 26.2522 278.499 26.0602 278.723 25.8682C278.819 25.7722 278.915 25.6762 279.011 25.5802C279.139 25.4842 279.267 25.3882 279.395 25.2922C279.523 25.1962 279.635 25.1002 279.731 25.0042C279.859 24.9082 279.987 24.8122 280.115 24.7162C280.467 24.3962 280.787 24.0922 281.075 23.8042C281.395 23.4842 281.683 23.1642 281.939 22.8442C282.195 22.5562 282.387 22.2842 282.515 22.0282C282.643 21.7402 282.707 21.4842 282.707 21.2602C282.707 21.0682 282.643 20.8922 282.515 20.7322C282.419 20.5722 282.243 20.4282 281.987 20.3002C281.763 20.1402 281.443 20.0282 281.027 19.9642C280.611 19.9002 280.115 19.8682 279.539 19.8682H265.715L267.539 12.4282H281.699C283.235 12.4282 284.627 12.5722 285.875 12.8602C287.155 13.1162 288.291 13.5162 289.283 14.0602C290.243 14.5722 290.963 15.3242 291.443 16.3162C291.955 17.2762 292.211 18.4602 292.211 19.8682C292.211 20.6682 292.147 21.4042 292.019 22.0762C291.923 22.7162 291.763 23.2762 291.539 23.7562C291.315 24.2362 291.075 24.6682 290.819 25.0522C290.595 25.4042 290.355 25.7082 290.099 25.9642C289.907 26.1562 289.715 26.3322 289.523 26.4922C289.331 26.6202 289.155 26.7322 288.995 26.8282C288.835 26.9242 288.691 27.0202 288.563 27.1162C288.435 27.1802 288.323 27.2442 288.227 27.3082C288.387 27.4362 288.547 27.5802 288.707 27.7402C288.899 27.9002 289.107 28.0602 289.331 28.2202C289.555 28.3802 289.779 28.5562 290.003 28.7482C290.227 28.9402 290.451 29.1322 290.675 29.3242C291.091 29.7402 291.491 30.2042 291.875 30.7162C292.259 31.1962 292.627 31.7402 292.979 32.3482C293.331 32.9562 293.587 33.6282 293.747 34.3642C293.939 35.1002 294.035 35.9322 294.035 36.8602C293.971 38.0442 293.747 39.0682 293.363 39.9322C293.011 40.7642 292.499 41.4522 291.827 41.9962C291.155 42.5082 290.451 42.9562 289.715 43.3402C289.011 43.6922 288.259 43.9482 287.459 44.1082C287.107 44.2042 286.755 44.2842 286.403 44.3482C286.083 44.3802 285.747 44.4122 285.395 44.4442C285.075 44.4762 284.755 44.4922 284.435 44.4922C284.115 44.4922 283.811 44.4922 283.523 44.4922H267.539ZM301.348 49.1002C301.22 48.8122 301.06 48.5242 300.868 48.2362C300.708 47.9802 300.548 47.7082 300.388 47.4202C300.196 47.1322 300.004 46.8282 299.812 46.5082C299.652 46.1882 299.492 45.8522 299.332 45.5002C298.916 44.7962 298.532 43.9962 298.18 43.1002C297.828 42.2042 297.476 41.2442 297.124 40.2202C296.804 39.1962 296.548 38.1242 296.356 37.0042C296.196 35.8522 296.116 34.6522 296.116 33.4042C296.116 30.5562 296.484 27.9322 297.22 25.5322C297.988 23.1002 299.108 20.8922 300.58 18.9082C302.084 16.9242 304.132 15.3882 306.724 14.3002C309.316 13.2122 312.468 12.5882 316.18 12.4282H321.7L323.86 20.1562H317.716C317.684 20.1562 317.636 20.1562 317.572 20.1562C317.508 20.1562 317.46 20.1562 317.428 20.1562C317.364 20.1562 317.3 20.1562 317.236 20.1562C317.204 20.1562 317.156 20.1562 317.092 20.1562C316.964 20.1562 316.852 20.1562 316.756 20.1562C316.66 20.1562 316.564 20.1562 316.468 20.1562C315.38 20.1882 314.324 20.3162 313.3 20.5402C312.276 20.7642 311.284 21.0682 310.324 21.4522C309.332 21.8682 308.452 22.5722 307.684 23.5642C306.916 24.5242 306.26 25.7722 305.716 27.3082H313.972V20.7802H322.612V44.4922H313.972V34.6522H304.996C304.996 34.6842 304.996 34.7162 304.996 34.7482C304.996 34.7482 304.996 34.7642 304.996 34.7962C304.996 34.8282 304.996 34.8602 304.996 34.8922C304.996 34.8922 304.996 34.9082 304.996 34.9402C304.964 34.9722 304.948 35.0042 304.948 35.0362C304.948 35.0682 304.948 35.1002 304.948 35.1322C304.948 35.1642 304.948 35.1962 304.948 35.2282C304.948 35.4842 304.964 35.7562 304.996 36.0442C305.028 36.3002 305.06 36.5722 305.092 36.8602C305.156 37.1482 305.22 37.4362 305.284 37.7242C305.38 38.0122 305.476 38.3002 305.572 38.5882C305.668 38.9402 305.78 39.2922 305.908 39.6442C306.068 39.9962 306.212 40.3482 306.34 40.7002C306.5 41.0202 306.66 41.3562 306.82 41.7082C306.98 42.0282 307.14 42.3322 307.3 42.6202C307.396 42.8122 307.492 42.9882 307.588 43.1482C307.684 43.3082 307.78 43.4682 307.876 43.6282C307.972 43.7882 308.068 43.9482 308.164 44.1082C308.26 44.2362 308.356 44.3642 308.452 44.4922L301.348 49.1002ZM326.544 25.4362C326.544 25.4362 326.544 25.4202 326.544 25.3882C326.512 25.3882 326.496 25.3882 326.496 25.3882C326.496 25.3562 326.496 25.3402 326.496 25.3402C326.496 25.3082 326.496 25.2762 326.496 25.2442C326.496 25.2122 326.496 25.1802 326.496 25.1482C326.496 25.1162 326.496 25.0842 326.496 25.0522C326.464 25.0522 326.448 25.0522 326.448 25.0522C326.448 25.0202 326.448 25.0042 326.448 25.0042C326.448 24.9722 326.448 24.9562 326.448 24.9562C326.448 24.9242 326.448 24.8922 326.448 24.8602C326.448 22.7162 326.768 20.8602 327.408 19.2922C328.08 17.7242 329.072 16.4442 330.384 15.4522C331.696 14.4282 333.104 13.6762 334.608 13.1962C336.144 12.6842 337.776 12.4282 339.504 12.4282H345.984L347.808 20.1562H340.992C340.032 20.1562 339.184 20.3162 338.448 20.6362C337.744 20.9242 337.152 21.3882 336.672 22.0282C336.16 22.6362 335.776 23.3082 335.52 24.0442C335.296 24.7482 335.184 25.5162 335.184 26.3482C335.184 26.4762 335.184 26.6042 335.184 26.7322C335.184 26.8282 335.184 26.9242 335.184 27.0202C335.184 27.1482 335.184 27.2762 335.184 27.4042C335.216 27.5002 335.248 27.6122 335.28 27.7402C335.312 27.9642 335.344 28.1882 335.376 28.4122C335.44 28.6362 335.52 28.8602 335.616 29.0842C335.904 30.1402 336.368 31.1642 337.008 32.1562C337.68 33.1162 338.512 34.0282 339.504 34.8922C340.496 35.7882 341.648 36.4602 342.96 36.9082C344.272 37.3242 345.744 37.5322 347.376 37.5322C347.408 37.5322 347.44 37.5322 347.472 37.5322C347.536 37.5322 347.584 37.5322 347.616 37.5322C347.68 37.5322 347.728 37.5322 347.76 37.5322C347.824 37.5322 347.872 37.5162 347.904 37.4842C347.968 37.4842 348.016 37.4842 348.048 37.4842C348.112 37.4842 348.16 37.4842 348.192 37.4842C348.224 37.4842 348.24 37.4842 348.24 37.4842C348.272 37.4842 348.304 37.4842 348.336 37.4842C348.368 37.4842 348.4 37.4842 348.432 37.4842L346.608 44.8282H345.456C342.608 44.7642 340.032 44.2522 337.728 43.2922C335.456 42.3322 333.456 40.8762 331.728 38.9242C330 36.9402 328.704 34.8282 327.84 32.5882C326.976 30.3482 326.544 27.9642 326.544 25.4362ZM351.712 44.4922V12.4282H360.352V26.6842L367.744 12.4282H377.584L369.616 26.3482L379.216 44.4922H368.656L360.352 26.9722V44.4922H351.712ZM110.881 74.7722C110.945 72.3722 111.281 70.3242 111.889 68.6282C112.497 66.9002 113.377 65.5242 114.529 64.5002C115.649 63.4762 117.041 62.7082 118.705 62.1962C120.369 61.6842 122.273 61.4282 124.417 61.4282H135.217L137.377 68.8682H125.665C124.513 68.8682 123.537 68.9962 122.737 69.2522C121.969 69.5082 121.377 69.9082 120.961 70.4522C120.545 70.9642 120.209 71.6042 119.953 72.3722C119.729 73.1402 119.569 74.0362 119.473 75.0602C119.473 75.0602 119.473 75.0762 119.473 75.1082C119.441 75.1402 119.425 75.1562 119.425 75.1562C119.425 75.1882 119.425 75.2202 119.425 75.2522C119.425 75.2522 119.425 75.2682 119.425 75.3002C119.425 75.3002 119.425 75.3162 119.425 75.3482C119.393 75.3802 119.377 75.4122 119.377 75.4442C119.377 75.4762 119.377 75.5082 119.377 75.5402C119.377 76.5642 119.505 77.5402 119.761 78.4682C120.049 79.3642 120.481 80.2122 121.057 81.0122C121.633 81.8122 122.225 82.5322 122.833 83.1722C123.473 83.8122 124.129 84.3562 124.801 84.8042C125.185 85.0922 125.569 85.3482 125.953 85.5722C126.337 85.7642 126.721 85.9402 127.105 86.1002C127.489 86.2282 127.841 86.3402 128.161 86.4362C128.481 86.5002 128.769 86.5322 129.025 86.5322C129.025 86.5322 129.041 86.5322 129.073 86.5322C129.073 86.5322 129.089 86.5322 129.121 86.5322C129.121 86.5322 129.137 86.5322 129.169 86.5322C129.169 86.5322 129.169 86.5162 129.169 86.4842C129.201 86.4842 129.233 86.4842 129.265 86.4842C129.265 86.4842 129.281 86.4842 129.313 86.4842V79.0442H125.953V71.6042H137.665V93.8282H131.233C128.609 93.7642 126.289 93.4762 124.273 92.9642C122.289 92.4522 120.593 91.6522 119.185 90.5642C117.809 89.5082 116.609 88.3882 115.585 87.2042C114.593 85.9882 113.777 84.7402 113.137 83.4602C112.721 82.6282 112.369 81.8122 112.081 81.0122C111.793 80.2122 111.569 79.4122 111.409 78.6122C111.281 77.8122 111.169 77.0922 111.073 76.4522C110.977 75.8122 110.913 75.2522 110.881 74.7722ZM145.676 98.1002C145.548 97.8122 145.388 97.5242 145.196 97.2362C145.036 96.9802 144.876 96.7082 144.716 96.4202C144.524 96.1322 144.332 95.8282 144.14 95.5082C143.98 95.1882 143.82 94.8522 143.66 94.5002C143.244 93.7962 142.86 92.9962 142.508 92.1002C142.156 91.2042 141.804 90.2442 141.452 89.2202C141.132 88.1962 140.876 87.1242 140.684 86.0042C140.524 84.8522 140.444 83.6522 140.444 82.4042C140.444 79.5562 140.812 76.9322 141.548 74.5322C142.316 72.1002 143.436 69.8922 144.908 67.9082C146.412 65.9242 148.46 64.3882 151.052 63.3002C153.644 62.2122 156.796 61.5882 160.508 61.4282H166.028L168.188 69.1562H162.044C162.012 69.1562 161.964 69.1562 161.9 69.1562C161.836 69.1562 161.788 69.1562 161.756 69.1562C161.692 69.1562 161.628 69.1562 161.564 69.1562C161.532 69.1562 161.484 69.1562 161.42 69.1562C161.292 69.1562 161.18 69.1562 161.084 69.1562C160.988 69.1562 160.892 69.1562 160.796 69.1562C159.708 69.1882 158.652 69.3162 157.628 69.5402C156.604 69.7642 155.612 70.0682 154.652 70.4522C153.66 70.8682 152.78 71.5722 152.012 72.5642C151.244 73.5242 150.588 74.7722 150.044 76.3082H158.3V69.7802H166.94V93.4922H158.3V83.6522H149.324C149.324 83.6842 149.324 83.7162 149.324 83.7482C149.324 83.7482 149.324 83.7642 149.324 83.7962C149.324 83.8282 149.324 83.8602 149.324 83.8922C149.324 83.8922 149.324 83.9082 149.324 83.9402C149.292 83.9722 149.276 84.0042 149.276 84.0362C149.276 84.0682 149.276 84.1002 149.276 84.1322C149.276 84.1642 149.276 84.1962 149.276 84.2282C149.276 84.4842 149.292 84.7562 149.324 85.0442C149.356 85.3002 149.388 85.5722 149.42 85.8602C149.484 86.1482 149.548 86.4362 149.612 86.7242C149.708 87.0122 149.804 87.3002 149.9 87.5882C149.996 87.9402 150.108 88.2922 150.236 88.6442C150.396 88.9962 150.54 89.3482 150.668 89.7002C150.828 90.0202 150.988 90.3562 151.148 90.7082C151.308 91.0282 151.468 91.3322 151.628 91.6202C151.724 91.8122 151.82 91.9882 151.916 92.1482C152.012 92.3082 152.108 92.4682 152.204 92.6282C152.3 92.7882 152.396 92.9482 152.492 93.1082C152.588 93.2362 152.684 93.3642 152.78 93.4922L145.676 98.1002ZM172.84 93.4922V61.1402H180.904L187.624 70.4042L194.776 61.1402H202.792V93.4922H194.152V74.4362L187.624 83.0282L181.528 74.4362V93.4922H172.84ZM208.57 93.4922V61.4282H217.21V93.4922H208.57ZM223.613 93.4922V61.1402H231.965L241.229 72.5162V61.1402H249.485V93.4922H241.229V84.6122L231.965 73.4762V93.4922H223.613ZM253.897 74.7722C253.961 72.3722 254.297 70.3242 254.905 68.6282C255.513 66.9002 256.393 65.5242 257.545 64.5002C258.665 63.4762 260.057 62.7082 261.721 62.1962C263.385 61.6842 265.289 61.4282 267.433 61.4282H278.233L280.393 68.8682H268.681C267.529 68.8682 266.553 68.9962 265.753 69.2522C264.985 69.5082 264.393 69.9082 263.977 70.4522C263.561 70.9642 263.225 71.6042 262.969 72.3722C262.745 73.1402 262.585 74.0362 262.489 75.0602C262.489 75.0602 262.489 75.0762 262.489 75.1082C262.457 75.1402 262.441 75.1562 262.441 75.1562C262.441 75.1882 262.441 75.2202 262.441 75.2522C262.441 75.2522 262.441 75.2682 262.441 75.3002C262.441 75.3002 262.441 75.3162 262.441 75.3482C262.409 75.3802 262.393 75.4122 262.393 75.4442C262.393 75.4762 262.393 75.5082 262.393 75.5402C262.393 76.5642 262.521 77.5402 262.777 78.4682C263.065 79.3642 263.497 80.2122 264.073 81.0122C264.649 81.8122 265.241 82.5322 265.849 83.1722C266.489 83.8122 267.145 84.3562 267.817 84.8042C268.201 85.0922 268.585 85.3482 268.969 85.5722C269.353 85.7642 269.737 85.9402 270.121 86.1002C270.505 86.2282 270.857 86.3402 271.177 86.4362C271.497 86.5002 271.785 86.5322 272.041 86.5322C272.041 86.5322 272.057 86.5322 272.089 86.5322C272.089 86.5322 272.105 86.5322 272.137 86.5322C272.137 86.5322 272.153 86.5322 272.185 86.5322C272.185 86.5322 272.185 86.5162 272.185 86.4842C272.217 86.4842 272.249 86.4842 272.281 86.4842C272.281 86.4842 272.297 86.4842 272.329 86.4842V79.0442H268.969V71.6042H280.681V93.8282H274.249C271.625 93.7642 269.305 93.4762 267.289 92.9642C265.305 92.4522 263.609 91.6522 262.201 90.5642C260.825 89.5082 259.625 88.3882 258.601 87.2042C257.609 85.9882 256.793 84.7402 256.153 83.4602C255.737 82.6282 255.385 81.8122 255.097 81.0122C254.809 80.2122 254.585 79.4122 254.425 78.6122C254.297 77.8122 254.185 77.0922 254.089 76.4522C253.993 75.8122 253.929 75.2522 253.897 74.7722Z" fill="#00FFFF"/>
</svg>
