<svg width="230" height="230" viewBox="0 0 230 230" fill="none" xmlns="http://www.w3.org/2000/svg">
<circle cx="115" cy="115" r="115" fill="#DC143C"/>
<path d="M40.12 154C37.3333 154 34.7667 153.303 32.42 151.91C30.1467 150.517 28.3133 148.683 26.92 146.41C25.5267 144.063 24.83 141.497 24.83 138.71V132.66H39.35V138.05C39.35 138.417 39.46 138.747 39.68 139.04C39.9733 139.26 40.3033 139.37 40.67 139.37H88.08C88.4467 139.37 88.74 139.26 88.96 139.04C89.2533 138.747 89.4 138.417 89.4 138.05V122.98C89.4 122.613 89.2533 122.32 88.96 122.1C88.74 121.88 88.4467 121.77 88.08 121.77H40.12C37.3333 121.77 34.7667 121.073 32.42 119.68C30.1467 118.287 28.3133 116.453 26.92 114.18C25.5267 111.833 24.83 109.23 24.83 106.37V90.09C24.83 87.3033 25.5267 84.7733 26.92 82.5C28.3133 80.1533 30.1467 78.2833 32.42 76.89C34.7667 75.4967 37.3333 74.8 40.12 74.8H88.74C91.5267 74.8 94.0567 75.4967 96.33 76.89C98.6767 78.2833 100.547 80.1533 101.94 82.5C103.333 84.7733 104.03 87.3033 104.03 90.09V96.14H89.4V90.75C89.4 90.3833 89.2533 90.09 88.96 89.87C88.74 89.5767 88.4467 89.43 88.08 89.43H40.67C40.3033 89.43 39.9733 89.5767 39.68 89.87C39.46 90.09 39.35 90.3833 39.35 90.75V105.82C39.35 106.187 39.46 106.48 39.68 106.7C39.9733 106.92 40.3033 107.03 40.67 107.03H88.74C91.5267 107.03 94.0567 107.727 96.33 109.12C98.6767 110.513 100.547 112.383 101.94 114.73C103.333 117.003 104.03 119.57 104.03 122.43V138.71C104.03 141.497 103.333 144.063 101.94 146.41C100.547 148.683 98.6767 150.517 96.33 151.91C94.0567 153.303 91.5267 154 88.74 154H40.12ZM116.369 154V74.8H177.089C179.876 74.8 182.406 75.4967 184.679 76.89C187.026 78.2833 188.896 80.1533 190.289 82.5C191.682 84.7733 192.379 87.3033 192.379 90.09V105.6C192.379 106.553 192.306 107.47 192.159 108.35C192.012 109.23 191.756 110.073 191.389 110.88C192.636 112.567 193.626 114.327 194.359 116.16C195.166 117.993 195.569 119.827 195.569 121.66V138.71C195.569 141.497 194.872 144.063 193.479 146.41C192.086 148.683 190.216 150.517 187.869 151.91C185.522 153.303 182.956 154 180.169 154H116.369ZM132.209 139.37H179.509C179.876 139.37 180.206 139.26 180.499 139.04C180.792 138.747 180.939 138.417 180.939 138.05V122.32C180.939 121.953 180.792 121.66 180.499 121.44C180.206 121.147 179.876 121 179.509 121H132.209C131.842 121 131.512 121.147 131.219 121.44C130.999 121.66 130.889 121.953 130.889 122.32V138.05C130.889 138.417 130.999 138.747 131.219 139.04C131.512 139.26 131.842 139.37 132.209 139.37ZM132.209 106.37H176.429C176.796 106.37 177.089 106.26 177.309 106.04C177.529 105.747 177.639 105.417 177.639 105.05V90.75C177.639 90.3833 177.529 90.09 177.309 89.87C177.089 89.5767 176.796 89.43 176.429 89.43H132.209C131.842 89.43 131.512 89.5767 131.219 89.87C130.999 90.09 130.889 90.3833 130.889 90.75V105.05C130.889 105.417 130.999 105.747 131.219 106.04C131.512 106.26 131.842 106.37 132.209 106.37Z" fill="black"/>
</svg>
