<svg width="222" height="266" viewBox="0 0 222 266" fill="none" xmlns="http://www.w3.org/2000/svg">
<path d="M195.276 226.574C195.112 226.542 195.045 226.461 194.915 226.234C194.634 225.437 195.094 225.019 195.394 224.553C196.938 222.16 196.927 220.254 195.307 217.964C194.592 216.954 194.047 215.855 193.456 214.603C193.953 218.122 192.897 221.082 191.047 223.837C190.055 225.315 189.951 225.33 188.999 223.858C188.922 223.739 188.83 223.632 188.569 223.547C188.079 224.834 187.666 226.188 186.673 227.34C186.284 227.425 185.973 227.448 185.545 227.459C185.132 227.012 185.403 226.633 185.557 226.247C186.854 222.993 187.145 219.538 187.586 216.007C187.584 215.818 187.589 215.735 187.598 215.653C187.619 215.464 187.635 215.725 187.626 215.534C187.62 215.425 187.607 215.433 187.587 215.643C187.303 219.012 185.871 221.813 183.852 224.327C182.936 225.468 181.682 226.327 180.922 227.749C180.73 227.858 180.608 227.886 180.394 227.889C179.872 227.461 179.847 226.921 179.881 226.402C180.028 224.164 179.347 221.95 179.746 219.811C179.621 222.281 178.472 224.519 177.477 226.804C177.389 227.006 177.243 227.27 176.959 227.195C176.57 227.092 176.546 226.71 176.473 226.393C175.671 222.897 174.334 219.503 174.527 216.579C174.738 219.078 175.267 222.327 174.431 225.574C174.336 225.941 174.335 226.331 174.177 226.685C173.967 227.153 173.651 227.491 173.096 227.467C172.504 227.443 172.298 227.024 172.201 226.521C172.033 225.642 171.91 224.757 171.92 224.193C171.962 224.536 171.867 225.201 171.741 225.855C171.594 226.616 171.08 226.984 170.313 226.993C169.498 227.003 169.095 226.552 168.999 225.782C168.94 225.31 168.774 224.85 168.835 224.541C168.826 224.724 168.898 225.087 168.856 225.44C168.778 226.1 168.395 226.398 167.761 226.11C166.303 225.449 164.931 224.729 164.784 222.822C164.7 221.736 164.471 220.656 164.205 219.591C164.446 220.684 164.63 221.786 164.805 222.89C164.857 223.218 164.972 223.541 164.904 223.879C164.829 224.253 164.78 224.678 164.297 224.731C163.884 224.777 163.756 224.419 163.605 224.121C163.438 223.794 163.442 223.407 163.241 223.057C163.308 224.518 162.141 225.475 161.832 226.763C161.776 226.998 161.502 227.105 161.24 227.006C160.937 226.891 160.835 226.61 160.79 226.327C160.654 225.48 160.605 224.623 160.432 223.779C160.257 222.923 160.089 222.108 159.196 221.655C158.754 221.431 158.558 220.951 158.444 220.48C158.07 218.93 157.497 217.436 157.172 215.931C157.207 216.547 157.415 217.181 157.574 217.826C157.741 218.504 157.841 219.166 156.932 219.44C156.321 219.623 156.404 220.17 156.395 220.632C156.37 221.823 156.39 223.016 156.384 224.207C156.382 224.636 156.387 225.066 156.299 225.49C156.17 226.108 155.814 226.583 155.188 226.644C154.426 226.719 154.391 225.999 154.387 225.543C154.352 222.091 152.572 219.176 151.543 216.032C151.46 215.858 151.351 216.13 151.501 216.013C151.531 215.99 151.557 216.027 151.597 216.118C152.084 217.244 152.213 218.412 151.985 219.613C151.537 221.976 151.111 224.33 152.545 226.543C152.708 226.795 152.714 227.1 152.416 227.298C152.152 227.474 151.87 227.439 151.607 227.284C151.116 226.993 150.921 226.491 150.782 225.988C149.598 221.688 147.126 218.171 144.147 214.948C143.284 214.014 142.606 212.947 142.468 211.867C143.018 213.806 142.464 215.896 141.992 217.986C141.8 218.833 141.194 218.927 140.843 218.232C139.667 215.899 137.526 214.192 136.874 212.278C137.206 213.556 137.592 215.447 137.303 217.433C137.118 218.71 137.127 220.006 137.462 221.269C138.083 223.601 138.135 225.979 138.066 228.368C138.058 228.654 138.054 228.943 137.973 229.219C137.879 229.539 137.782 229.908 137.354 229.879C136.902 229.849 136.845 229.447 136.892 229.13C137.163 227.322 136.532 225.538 136.808 223.74C136.489 226.277 136.181 228.811 134.599 231.072C134.297 231.163 134.077 231.184 133.747 231.185C133.167 230.697 133.267 230.119 133.333 229.552C133.567 227.559 133.576 225.569 133.305 223.578C133.24 223.106 133.12 222.598 133.329 222.167C134.099 220.584 133.688 219.019 133.319 217.341C133.188 217.079 133.341 217.271 133.226 217.119C133.132 216.995 133.061 216.853 132.935 216.755C133.034 216.85 133.106 216.969 133.249 217.155C134.087 219.603 133.613 221.819 132.523 223.964C132.307 224.388 132.11 224.946 131.573 224.91C130.914 224.867 130.875 224.187 130.801 223.708C130.49 221.684 130.765 219.627 130.508 217.595C130.45 217.137 130.548 216.661 130.37 216.247C130.852 219.106 130.414 221.95 129.905 224.786C129.785 225.45 129.362 225.998 128.965 226.533C128.688 226.907 128.431 227.375 127.865 227.313C127.261 227.247 127.448 226.578 127.119 226.17C127.643 228.202 127.579 228.429 126.029 229.4C125.265 229.879 124.945 230.71 124.287 231.403C124.081 231.477 123.95 231.476 123.721 231.459C123.062 230.788 123.496 230.069 123.497 229.38C123.497 228.39 123.547 227.4 123.477 226.449C123.297 226.38 123.222 226.413 123.142 226.49C122.778 226.841 122.587 227.595 122.033 227.468C121.401 227.322 121.496 226.537 121.359 226.004C121.193 225.358 121.157 224.685 120.986 223.975C120.6 225.514 120.579 227.026 120.601 228.542C120.608 228.971 120.62 229.403 120.509 229.822C120.422 230.152 120.304 230.49 119.875 230.467C119.533 230.45 119.407 230.169 119.334 229.886C118.715 227.495 117.542 225.277 117.122 222.721C116.422 223.744 116.223 224.917 115.776 225.933C115.152 227.354 113.861 227.845 113.018 228.88C112.505 229.51 112.055 229.323 111.811 228.556C111.399 227.261 111.53 225.922 111.48 224.485C111.107 225.488 111.205 226.43 111.135 227.354C111.086 228.004 110.895 228.374 110.102 228.619C109.161 228.909 108.212 229.424 107.438 230.128C107.051 230.48 106.703 230.883 106.092 231.087C105.273 231.007 105.301 230.425 105.238 229.916C105.04 228.298 105.043 228.294 103.524 229.053C102.921 229.354 102.3 229.581 101.618 229.586C100.447 229.594 100.148 229.228 100.491 228.12C100.829 227.03 101.058 225.91 101.443 224.831C100.689 226.669 99.5043 228.215 98.2019 229.681C97.9893 229.92 97.7386 230.245 97.3697 230.07C97.0039 229.896 96.9969 229.47 97.1581 229.193C98.1255 227.534 98.2032 225.538 99.157 223.876C98.8605 224.35 98.4528 224.746 98.1207 225.204C97.7189 225.758 97.9903 226.415 97.8438 227.008C97.762 227.34 97.6461 227.694 97.3462 227.847C95.6411 228.72 94.1875 230.279 92.1195 230.184C90.5488 230.111 89.5537 230.932 88.535 231.858C88.2878 232.083 88.0417 232.305 87.6694 232.529C87.0945 232.625 86.5999 232.661 85.9831 232.674C85.2866 231.729 85.3755 230.66 85.2169 229.649C85.1071 228.95 85.0934 228.237 84.4597 227.606C82.98 229.437 81.5841 231.318 79.6547 232.829C79.4464 232.911 79.3155 232.932 79.0869 232.93C77.2716 232.009 77.2722 232.009 77.6602 229.798C77.7574 229.244 77.7892 228.685 77.8003 228.037C75.7446 229.939 73.3995 231.321 71.0264 232.807C70.1829 232.398 70.5529 231.796 70.7116 231.297C71.2473 229.61 71.4627 227.861 71.791 226.106C70.4459 227.918 68.5037 229.078 67.0178 230.716C66.6774 231.092 66.2376 231.565 65.6691 231.278C65.0448 230.963 65.2147 230.307 65.2554 229.741C65.4073 227.634 66.8584 226.123 67.6466 224.431C67.1502 225.183 66.7388 226.118 66.1757 226.968C65.8616 227.442 65.5254 227.795 64.928 227.753C64.254 227.706 64.2212 227.134 63.9932 226.66C63.046 224.693 62.4643 222.614 61.8034 220.541C60.8307 217.49 60.8169 214.463 61.7284 211.555C62.6246 208.695 62.4032 206.029 61.6007 203.291C59.2722 195.346 60.1811 187.832 64.6072 180.797C66.7462 177.397 69.3036 174.316 72.0502 171.399C78.5152 164.534 85.1133 157.798 91.2331 150.605C94.1271 147.204 97.3254 144.044 100.406 140.795C104.019 136.985 107.241 132.85 110.685 128.9C112.847 126.42 114.794 123.769 116.811 121.174C117.527 120.253 118.06 119.258 118.136 117.959C118.042 115.814 118.593 113.785 118.23 111.738C117.891 109.82 117.694 109.695 115.929 110.437C115.709 110.529 115.496 110.636 115.169 110.759C113.023 110.947 111.234 111.888 109.392 112.645C106.738 113.735 104.02 114.518 101.176 114.974C97.283 115.598 93.367 116.113 89.5212 117.008C88.3388 117.283 87.3177 117.129 86.5985 116.102C84.6937 113.382 82.0824 111.389 79.6214 109.242C77.7786 107.634 75.6497 107.559 73.4655 108.321C72.3936 108.695 71.3453 109.16 70.314 109.658C64.6662 112.387 58.0172 108.186 57.9802 101.884C57.9757 101.123 57.9178 100.355 58.0027 99.6011C58.1153 98.6016 57.7571 97.9432 56.734 97.521C56.5301 97.2958 56.437 97.1259 56.4441 96.9297C56.5296 94.5637 59.9156 92.0172 62.2002 92.6641C63.9403 93.1569 65.5876 93.9131 67.1762 94.7777C68.2264 95.3493 69.3131 95.8207 70.4696 96.1118C70.9986 96.2449 71.5712 96.4784 72.076 95.9623C71.8617 95.2881 71.2329 95.2317 70.7275 95.0557C69.3359 94.5712 67.9425 94.0993 66.5977 93.489C64.2761 92.4354 61.8776 91.756 59.2829 91.9941C58.4276 92.0726 57.5747 91.9389 56.6497 91.6191C56.4818 91.5394 56.4176 91.5011 56.2717 91.386C55.7394 90.5871 55.4221 89.7986 54.9637 89.0702C54.0653 87.6424 54.8214 86.3325 55.6 84.9812C55.9679 84.092 56.1831 83.2767 56.3475 82.4286C56.9277 79.4346 58.4558 76.8792 60.6514 74.8636C61.6964 73.9044 63.0379 73.1667 64.2511 72.3376C65.5442 71.4538 66.9043 70.6461 67.6503 69.1632C67.814 68.8379 68.1054 68.4691 68.5546 68.6579C69.051 68.8665 68.9943 69.343 68.9087 69.7696C68.8046 70.2883 68.5245 70.7402 68.2972 71.2108C67.9041 72.0251 67.4723 72.8199 67.0761 73.6323C66.9302 73.9315 66.7917 74.2922 67.1072 74.5496C67.4322 74.8146 67.7401 74.5575 68.0084 74.3735C68.716 73.8881 69.3787 73.3572 69.9084 72.6627C70.3664 72.0623 70.8205 71.4312 71.7065 71.2021C72.3591 71.5793 72.0401 72.2852 72.4471 72.8222C73.4899 71.9914 74.1784 70.9064 75.0493 69.6922C74.0908 69.6595 73.5209 70.3172 72.689 70.307C71.6734 69.8194 71.587 68.8343 71.2148 68.0346C70.3795 66.2394 69.9561 66.0503 68.1191 66.6979C67.1104 67.0535 66.2409 67.6174 65.4739 68.3516C64.8542 68.9447 64.2753 69.5805 63.6396 70.1557C63.2314 70.525 62.8048 71.1317 62.186 70.7435C61.5643 70.3536 61.6116 69.5644 61.9193 69.0599C63.1277 67.0792 63.9499 64.6808 66.907 64.5409C71.1407 64.3406 73.8878 61.858 75.9438 58.3986C76.3807 57.6634 76.7545 56.8788 77.3974 56.2877C77.6466 56.0586 77.9489 55.8722 78.3038 56.0474C78.6622 56.2244 78.6783 56.5764 78.6446 56.9143C78.5736 57.6286 78.4174 58.3379 78.169 59.0007C77.5367 60.6877 77.6948 62.3391 78.5698 63.8243C79.6031 65.5781 79.3414 67.0688 78.1246 68.5454C77.9846 68.7153 77.7928 68.9073 77.9289 69.1825C77.9319 69.1793 82.1601 64.8249 82.1601 64.8249C82.9107 63.3497 82.494 61.4365 81.1716 60.2863C79.7854 59.0807 79.7065 58.4671 81.0256 57.1499C81.9637 56.2131 85.2084 54.1045 84.5821 52.7164L83.4889 51.6231L81.3023 50.5299C80.209 50.5299 79.9288 51.2577 80.209 50.5299C80.4173 49.9888 80.2733 48.8503 80.1735 48.1839C80.2992 46.817 79.3025 46.2218 78.5643 45.5586C75.9749 43.2321 75.8421 40.4127 76.7882 37.3604C77.1469 36.203 77.8773 35.227 78.832 34.5143C79.5406 33.9853 80.0525 33.3513 80.5902 32.56C81.5023 32.1328 82.3648 32.2195 83.2106 32.3338C85.572 32.6528 87.8428 32.2464 90.0778 31.5356C91.3189 31.1409 92.2837 30.429 92.6789 29.1109C92.8229 28.6304 93.1141 28.096 93.6155 28.1611C95.6944 28.4311 96.1278 26.7099 96.7375 25.4621C97.1745 24.5676 97.638 23.878 98.4228 23.2798C99.5193 22.444 100.448 21.4053 101.36 20.3668C101.773 19.897 102.181 19.3357 102.789 19.2247C105.213 18.7826 106.55 16.7465 108.374 15.4445C109.142 14.8958 109.846 14.3383 110.73 13.9465C112.631 13.1035 114.324 11.8682 116.236 11.0012C117.524 10.4175 118.724 9.86679 120.154 9.92946C121.012 9.96709 121.842 9.82362 122.688 9.62082C123.883 9.33464 124.761 8.7409 125.382 7.70116C125.979 6.70161 126.899 6.14987 128.015 5.89261C129.143 5.63251 130.185 5.18573 131.108 4.47451C131.334 4.29988 131.568 4.10498 131.843 4.04187C135.058 3.30351 138.156 2.11193 141.606 2.5234C145.72 3.01393 149.613 4.12633 153.364 5.80085C155.085 6.56915 156.239 8.12412 157.74 9.21272C159.089 10.1914 160.368 11.2532 161.994 11.7716C162.78 12.0224 163.402 12.5711 163.998 13.1154C165.315 14.3172 166.789 15.2595 168.53 15.9877C173.627 18.2325 176.919 21.8568 177.942 27.3223C178.199 28.6918 179.038 29.6209 179.993 30.497C181.113 31.5251 181.977 32.5873 181.066 34.2161C180.775 34.7362 181.098 35.2239 181.409 35.6656C183.216 38.2278 184.398 41.0543 185.127 44.1033C185.447 45.4425 186.236 46.6272 186.776 47.898C187.398 49.3619 187.178 49.7154 185.597 49.9604C184.273 50.1655 182.954 50.301 182.124 50.1576C183.455 50.5525 185.327 50.8695 187.019 51.7588C187.901 52.2227 188.953 52.6865 188.982 53.8271C189.008 54.822 187.918 55.014 187.126 55.4588C188.278 56.2451 189.444 56.8204 190.333 57.7529C190.867 58.3139 191.851 58.8073 191.476 59.705C191.136 60.5201 190.133 60.1859 189.399 60.2351C188.633 60.2863 187.882 60.1108 187.125 60.0252C186.578 59.9633 186.002 59.8633 185.358 60.3317C186.968 61.1527 188.643 61.5389 190.177 62.2594C191.108 62.6964 191.735 63.3354 192.109 64.2514C192.407 64.9803 192.16 65.5904 191.371 65.586C188.853 65.5722 186.426 66.6669 183.877 66.1548C186.416 66.6673 188.884 67.3319 190.933 69.0366C191.3 69.3419 191.678 69.6353 191.993 69.9936C192.361 70.4128 192.924 70.8144 192.641 71.4577C192.391 72.0249 191.762 71.9361 191.248 71.9627C190.347 72.0095 189.442 71.9274 188.477 72.042C189.964 72.5646 191.397 73.049 192.776 73.6697C193.526 74.0072 194.223 74.4186 194.547 75.3604C194.434 77.0748 192.425 78.918 190.604 79.0817C189.992 79.1367 189.375 79.1361 188.743 79.0707C190.223 79.892 191.78 80.5786 192.928 82.0112C193.039 82.2972 193.05 82.4997 193.056 82.8055C193.052 82.9762 193.047 83.0447 193.014 83.2133C192.846 83.6458 192.609 83.8908 192.2 84.1043C188.877 84.4345 185.645 84.1816 182.421 84.2785C184.543 85.1285 186.088 86.8592 187.935 88.1672C188.337 88.4522 188.63 88.8566 188.428 89.394C188.248 89.8746 187.787 89.9149 187.36 89.9609C186.745 90.0269 186.124 89.9676 185.35 90.0289C185.685 90.3822 186.046 90.4142 186.351 90.5256C188.95 91.4753 191.133 93.0361 193.003 95.0533C194.07 96.2032 193.954 96.8999 192.612 97.7984C192.105 98.1378 191.478 98.2908 191.017 98.8235C191.499 99.6236 192.451 99.9198 193.028 100.736C193.113 100.876 193.144 100.933 193.262 101.161C193.381 101.388 193.412 101.444 193.492 101.582C193.573 101.721 193.604 101.777 193.68 101.921C193.802 102.192 193.854 102.381 193.83 102.68C193.437 103.448 192.734 103.519 192.106 103.704C191.236 103.959 191.023 104.387 191.615 105.144C192.146 105.822 192.674 106.489 193.415 106.96C193.937 107.292 194.461 107.627 194.949 108.007C196.315 109.071 196.287 109.809 194.863 110.734C193.586 111.561 192.218 112.221 190.91 112.893C192.038 113.509 193.214 113.848 194.571 113.716C195.412 113.634 196.177 114.233 196.916 114.86C197.026 114.982 197.068 115.033 197.223 115.242C197.374 115.453 197.411 115.507 197.499 115.643C197.582 115.784 197.613 115.842 197.683 115.99C197.806 116.334 197.869 116.591 197.851 116.958C197.354 117.979 196.322 118.146 195.583 118.711C194.887 119.243 193.614 119.809 193.88 120.551C194.194 121.427 195.464 120.916 196.32 120.811C198.162 120.586 199.631 121.338 200.491 123.112C200.328 123.679 199.877 123.863 199.485 124.235C199.218 124.448 199.014 124.591 198.765 124.826C198.64 124.922 198.586 124.957 198.444 125.032C197.399 125.362 196.588 125.981 195.544 126.313C195.145 126.567 194.851 126.815 194.269 126.9C194.841 126.852 195.119 126.613 195.508 126.37C196.395 126.037 197.129 125.531 198.141 125.66C198.614 125.782 198.951 125.96 199.275 126.16C200.848 127.135 200.938 128.104 199.55 129.277C198.913 129.814 198.247 130.318 197.613 131.036C199.183 131.308 200.57 130.347 202.052 131.073C203.281 132.38 203.254 132.693 201.901 133.692C201.633 133.89 201.355 134.074 201.027 134.363C200.155 135.009 199.215 135.373 198.254 136.228C199.98 136.572 201.505 136.36 203.112 136.393C203.637 136.311 204.025 136.091 204.454 136.055C205.12 135.998 205.722 136.224 206.054 136.797C206.417 137.425 205.938 137.897 205.517 138.273C204.448 139.231 203.221 139.967 201.861 140.766C203.204 140.592 204.425 140.804 205.657 140.798C206.435 140.794 207.24 140.946 207.587 141.759C207.935 142.573 207.297 143.084 206.817 143.607C206.046 144.447 205.107 144.962 203.669 145.062C205.229 145.006 206.465 144.705 207.719 144.526C209.087 144.331 209.276 144.613 208.703 145.864C208.555 146.187 208.411 146.515 208.699 146.786C209.751 147.78 209.047 148.576 208.442 149.39C208.187 149.732 207.819 149.97 207.5 150.441C208.95 150.282 210.124 150.507 210.413 152.155C210.459 152.419 210.749 152.61 210.958 152.804C211.644 153.442 212.021 154.177 211.577 155.098C211.11 156.069 210.423 156.731 209.269 156.533C209.901 156.698 210.61 156.646 211.287 156.815C211.675 156.912 212.068 157.103 212.035 157.548C212.007 157.934 211.584 157.968 211.263 158.052C210.77 158.18 210.225 157.959 209.752 158.257C209.812 158.652 210.146 158.797 210.371 159.022C211.945 160.589 211.968 160.601 210.648 162.395C210.235 162.955 210.292 163.313 210.841 163.685C211.636 164.223 212.32 164.895 212.924 165.633C213.9 166.825 213.583 167.726 212.085 168.145C211.642 168.269 211.142 168.256 210.724 168.685C211.21 169.5 212.169 169.855 212.591 170.645C213.507 172.357 214.134 174.223 215.378 175.758C215.464 175.864 215.513 176.026 215.504 176.163C215.335 178.996 216.122 181.824 215.548 184.659C215.472 185.036 215.366 185.402 215.171 185.734C214.623 186.667 214.076 186.676 213.482 185.788C212.765 184.717 212.162 183.591 211.767 182.359C212.316 183.948 213.24 185.312 214.144 186.719C214.891 187.881 215.265 189.324 215.324 190.794C215.436 193.599 215.543 196.406 215.841 199.2C215.877 199.532 215.887 199.867 215.835 200.198C215.741 200.804 215.518 201.341 214.808 201.367C214.163 201.391 213.901 200.887 213.763 200.366C213.385 198.938 212.965 197.52 212.634 196.08C212.058 193.572 211.586 191.039 210.809 188.579C210.65 188.079 210.571 187.558 210.698 187.02C210.453 192.8 210.923 198.502 212.429 204.101C212.612 204.783 213.06 205.799 212.131 206.132C211.038 206.524 210.918 205.335 210.599 204.66C209.561 202.464 208.596 200.235 208.076 198.882C208.85 203.138 209.559 208.405 211.117 213.506C211.712 215.452 211.018 217.367 209.963 219.092C209.839 219.295 209.697 219.494 209.53 219.66C208.986 220.2 208.92 221.463 207.946 221.246C207.092 221.057 207.187 219.909 206.942 219.174C206.28 217.184 205.784 215.157 205.579 213.049C205.387 211.07 204.494 209.273 203.795 207.433C204.385 209.227 205.354 210.902 205.408 212.952C205.324 213.112 205.278 213.17 205.124 213.25C204.357 213.041 204.259 212.327 203.69 211.739C203.518 212.679 203.624 213.504 203.598 214.315C203.526 216.55 203.751 218.793 203.443 221.022C203.391 221.399 203.328 221.777 203.205 222.139C203.111 222.415 202.983 222.703 202.657 222.73C202.239 222.764 202.051 222.436 202.011 222.102C201.627 218.927 199.759 216.242 199.076 213.168C199.049 213.047 198.976 212.932 199.058 213.07C199.675 216.146 200.158 219.49 198.819 222.77C198.152 224.405 197.242 225.937 195.276 226.574Z" fill="#00FFFF"/>
<path d="M195.303 226.664C199.246 223.813 199.555 219.7 199.056 215.333C198.906 214.014 198.618 212.71 198.561 211.357C199.785 215.098 201.997 218.467 202.52 222.875C202.985 221.554 203.18 220.599 203.179 219.594C203.176 216.98 203.173 214.365 203.19 211.751C203.192 211.408 202.997 210.89 203.512 210.791C203.884 210.719 204.004 211.169 204.157 211.456C204.448 212 204.731 212.549 205.104 213.148C205.307 211.359 204.271 209.837 203.788 208.162C203.61 207.545 203.352 206.952 203.281 206.304C206.164 210.795 206.005 216.233 207.959 220.977C209.913 219.004 211.574 215.891 210.569 212.808C209.258 208.786 208.484 204.641 208.007 200.433C207.859 199.122 207.327 197.858 207.519 196.464C208.344 198.404 209.17 200.343 209.992 202.284C210.419 203.291 210.827 204.305 211.269 205.304C211.411 205.625 211.507 206.15 212.02 205.96C212.496 205.784 212.294 205.336 212.219 204.969C211.681 202.322 211.103 199.683 210.623 197.025C209.966 193.387 210.516 189.714 210.289 185.896C211.188 186.544 210.822 187.406 211.045 188.077C212.356 192 212.949 196.107 214.059 200.083C214.185 200.535 214.22 201.149 214.828 201.11C215.546 201.064 215.52 200.406 215.473 199.891C215.172 196.581 215.098 193.255 214.83 189.948C214.726 188.665 214.209 187.348 213.361 186.206C212.214 184.662 211.797 182.712 210.45 180.907C211.583 181.098 211.831 181.729 212 182.326C212.358 183.585 213.116 184.619 213.757 185.721C214.081 186.278 214.498 186.461 214.736 185.744C215.253 184.19 215.888 182.623 215.15 180.946C214.657 179.828 215.29 178.724 215.243 177.593C215.197 176.49 215.033 175.541 214.265 174.739C213.633 174.08 213.211 173.373 213.05 172.41C212.799 170.907 211.483 170.103 210.458 169.129C210.238 168.919 209.765 168.834 209.922 168.398C210.052 168.037 210.469 168.105 210.764 167.981C211.55 167.652 212.786 168.14 213.108 167.066C213.426 166.003 212.232 165.611 211.693 164.937C211.338 164.495 210.921 164.087 210.37 163.868C209.43 163.495 209.385 163.058 210.113 162.326C211.634 160.796 211.605 160.761 210.006 159.234C209.733 158.973 209.424 158.747 209.123 158.517C208.934 158.372 208.697 158.242 208.778 157.966C208.863 157.678 209.15 157.712 209.379 157.71C210.182 157.701 210.986 157.706 211.789 157.706C211.807 157.578 211.825 157.45 211.842 157.322C210.548 157.117 209.254 156.911 207.874 156.692C208.2 156.085 208.725 156.251 209.121 156.285C210.268 156.383 210.905 155.77 211.324 154.828C211.769 153.824 211.04 153.35 210.385 152.856C210.271 152.771 210.05 152.7 210.046 152.614C209.925 150.128 207.998 150.972 206.546 150.8C207.255 149.871 208.273 149.328 208.718 148.31C208.836 148.041 209.167 147.805 208.852 147.429C207.769 146.139 207.777 146.132 209.009 144.779C206.794 145.09 204.711 145.382 202.456 145.698C202.902 144.809 203.683 144.71 204.282 144.63C205.56 144.46 206.286 143.598 207.067 142.776C207.735 142.073 207.52 141.513 206.617 141.37C204.946 141.106 203.257 140.968 201.566 141.216C201.296 141.256 201.041 141.424 200.647 141.103C201.868 140.312 203.036 139.559 204.199 138.8C204.517 138.593 204.881 138.415 205.118 138.134C205.419 137.778 206.237 137.509 205.792 136.944C205.437 136.492 204.786 136.001 204.053 136.601C203.887 136.736 203.612 136.739 203.282 136.804C202.816 136.372 202.249 136.416 201.795 136.201C201.043 135.845 200.365 135.433 200.817 134.317C200.949 133.566 201.567 133.514 201.979 133.251C202.803 132.725 202.921 132.173 202.076 131.45C201.755 130.31 202.569 130.468 203.099 130.499C204.025 130.555 204.918 130.826 205.857 131.302C206.153 131.485 206.3 131.654 206.454 131.95C206.576 132.648 206.308 133.374 207.171 133.783C207.328 133.944 207.399 134.051 207.501 134.253C207.615 134.611 207.827 134.77 208.094 135.022C209.997 138.304 211.136 141.805 212.407 145.238C214.416 150.661 215.627 156.298 216.546 162.001C216.765 163.365 217.334 164.648 217.592 166.125C217.593 166.617 217.615 166.994 217.63 167.482C217.757 168.379 217.908 169.158 217.905 169.962C217.897 171.592 218.666 172.929 219.591 174.316C219.579 174.989 219.288 175.496 219.215 176.161C218.896 177.662 219.545 178.878 219.95 180.242C219.934 180.409 219.915 180.473 219.836 180.618C219.332 180.931 218.952 181.175 219.362 181.756C219.604 182.099 219.77 182.486 219.855 183.009C219.922 183.825 219.922 184.539 219.835 185.355C219.315 186.902 220.344 187.828 221.06 189.077C221.155 189.335 221.165 189.403 221.172 189.574C219.695 190.623 220.142 191.83 220.546 193.165C220.818 194.064 221.253 195.382 219.395 195.337C218.966 195.327 219.08 195.717 219.153 195.985C219.277 196.444 219.41 196.9 219.545 197.357C219.639 197.676 219.854 198.039 219.748 198.321C219.286 199.56 219.042 200.809 219.184 202.137C219.213 202.407 218.984 202.735 218.671 202.739C217.593 202.751 217.862 203.397 218.046 203.998C218.284 204.774 218.53 205.559 218.435 206.375C218.363 206.997 218.662 207.911 217.391 207.762C216.832 207.696 217.032 208.333 217.075 208.645C217.234 209.778 217.357 210.909 217.311 212.055C217.241 213.779 216.878 213.972 215.324 213.016C215.252 214.397 215.66 215.677 215.792 216.986C215.886 217.924 215.805 218.779 214.393 218.559C214.194 218.514 214.086 218.517 213.944 218.636C213.81 219.425 213.957 220.121 214.047 220.825C214.157 221.673 214.027 222.398 212.909 222.286C212.317 222.227 212.2 222.621 212.044 223.133C212.028 223.446 212.036 223.662 212.082 223.98C212.122 224.455 212.012 224.674 211.57 224.732C206.194 225.436 200.841 226.322 195.303 226.664Z" fill="#090A09"/>
<path d="M118.427 117.825C118.629 119.213 118.043 120.28 117.306 121.206C113.733 125.694 110.169 130.192 106.479 134.584C103.884 137.672 101.135 140.634 98.3811 143.584C93.8443 148.445 89.2743 153.269 84.9794 158.354C82.5622 161.216 79.8367 163.821 77.2124 166.505C72.428 171.398 67.6192 176.298 64.1811 182.266C60.3611 188.898 59.8051 195.978 62.0077 203.295C62.8377 206.053 63.0472 208.742 62.1232 211.629C61.2346 214.406 60.9898 217.382 62.1952 220.254C62.4488 220.858 62.5362 221.534 62.682 222.181C62.9161 223.22 62.9098 224.323 63.8678 225.109C64.2419 225.417 64.4029 225.994 64.406 226.548C64.408 226.915 64.3296 227.367 64.8392 227.48C65.3341 227.59 65.6329 227.301 65.8579 226.884C66.3548 225.964 66.8535 225.044 67.3867 224.145C67.6107 223.767 67.6277 223.205 68.3302 223.05C68.3044 224.568 67.3726 225.637 66.6817 226.753C65.9753 227.893 65.7315 229.113 65.5641 230.382C65.536 230.595 65.5828 230.92 65.7235 231.033C66.0155 231.267 66.2605 230.976 66.4292 230.769C67.9614 228.888 70.2618 227.765 71.5123 225.607C71.6738 225.329 71.8397 224.899 72.2337 225.139C72.5495 225.332 72.3618 225.733 72.2878 226.059C71.7987 228.218 71.324 230.38 70.9155 232.607C71.0888 232.767 71.1275 232.884 71.0482 233.098C64.5581 233.411 58.1306 233.646 51.7032 233.884C50.4178 233.932 49.1329 233.99 47.7241 234.051C49.7714 231.092 51.4488 227.818 53.3803 224.702C54.2591 223.284 55.0219 221.795 55.839 220.235C56.5365 218.205 57.5147 216.408 58.4655 214.605C59.2245 213.165 59.7902 211.657 60.366 210.146C60.8764 208.808 60.9217 207.46 60.4103 206.103C60.0586 205.169 59.8239 204.202 59.6826 203.109C59.6602 202.638 59.6251 202.274 59.5559 201.835C58.5009 201.027 58.6699 199.812 58.3116 198.686C58.1676 197.699 58.5056 196.839 58.3854 195.856C58.4246 194.973 58.4277 194.202 58.4122 193.305C58.0724 192.643 58.3889 192.158 58.5711 191.562C58.6611 191.333 58.6898 191.2 58.6901 190.967C58.4796 190.08 58.6564 189.324 58.8778 188.466C60.5634 182.696 64.0031 178.068 67.632 173.569C70.7477 169.707 74.2785 166.221 77.8419 162.778C80.9004 159.823 83.4898 156.458 86.3408 153.324C88.4876 150.964 90.4315 148.427 92.7008 146.175C97.6088 141.306 102.191 136.145 106.539 130.77C109.055 127.66 111.872 124.802 114.353 121.663C115.347 120.404 116.379 119.141 117.048 117.537C117.603 117.283 118.028 117.313 118.427 117.825Z" fill="#090A09"/>
<path d="M134.635 231.157C135.236 228.941 136.138 226.791 136.342 224.449C136.395 223.846 136.519 223.25 136.744 222.642C137.103 224.934 137.615 227.209 137.214 229.663C137.8 228.746 137.828 226.316 137.394 223.326C137.076 221.134 136.578 218.999 136.948 216.7C137.292 214.568 136.597 212.415 136.12 210.243C137.397 213.33 140.025 215.474 141.431 218.696C142.185 215.732 142.575 213.054 141.818 210.187C142.689 210.515 142.656 211.133 142.75 211.58C143.006 212.796 143.623 213.814 144.44 214.673C147.601 217.998 150.058 221.721 151.299 226.186C151.517 226.97 151.57 226.955 152.377 227.044C151.14 225.279 150.837 223.358 151.317 221.272C151.813 219.113 151.894 216.961 150.975 214.829C152.056 215.768 152.244 217.136 152.786 218.313C153.382 219.608 154.051 220.901 154.401 222.269C154.737 223.581 154.704 224.987 154.842 226.442C155.751 226.243 155.999 225.731 155.98 224.922C155.941 223.207 155.945 221.489 155.982 219.773C155.992 219.262 155.859 218.482 156.913 218.953C157.334 219.141 157.51 218.859 157.264 218.138C156.865 216.969 156.712 215.775 156.709 214.532C157.803 215.878 157.933 217.595 158.526 219.127C158.903 220.101 158.57 221.544 160.274 221.624C160.561 221.638 160.492 222.098 160.558 222.368C160.907 223.812 161.177 225.27 161.34 226.78C161.72 225.007 163.481 223.725 162.897 221.666C163.922 222.398 163.601 223.648 164.304 224.624C164.786 223.196 164.599 221.949 164.011 220.746C163.68 220.068 163.617 219.378 163.756 218.664C163.786 218.511 163.984 218.39 164.104 218.255C164.233 218.38 164.444 218.486 164.477 218.632C164.624 219.277 164.838 219.939 164.813 220.586C164.725 222.908 165.392 224.707 167.702 225.704C168.378 225.996 168.52 225.976 168.557 225.278C168.605 224.373 168.43 223.442 168.819 222.557C169.312 223.611 169.07 224.756 169.364 225.835C169.547 226.509 169.82 226.68 170.426 226.655C171.061 226.628 171.363 226.337 171.42 225.694C171.494 224.865 171.636 224.042 171.8 222.833C172.278 224.235 172.493 225.289 172.561 226.375C172.586 226.766 172.584 227.17 173.128 227.189C173.614 227.206 173.867 226.839 173.885 226.477C173.998 224.174 174.854 221.955 174.403 219.567C174.125 218.098 174.351 216.534 174.503 214.978C174.855 219.035 175.977 222.926 177.069 226.822C178.177 224.241 179.335 221.577 179.676 218.615C179.883 218.638 180.09 218.661 180.297 218.684C180.297 221.651 180.297 224.619 180.3 227.726C175.692 228.525 171.043 228.801 166.406 229.167C160.06 229.668 153.702 230.006 147.222 230.447C147.048 230.499 147.002 230.518 146.884 230.517C146.655 230.49 146.499 230.482 146.275 230.518C146.17 230.628 146.132 230.695 146.016 230.677C142.21 230.786 138.482 230.98 134.635 231.157Z" fill="#090A09"/>
<path d="M105.8 231.114C106.933 230.306 107.49 228.9 109.06 228.826C109.445 228.807 109.255 228.156 109.382 227.819C109.914 227.61 110 228.682 110.549 228.213C110.921 227.896 110.753 227.409 110.754 226.997C110.755 225.727 110.736 224.46 111.74 223.045C112.101 225.215 111.584 227.18 112.29 228.866C115.107 227.349 116.064 224.531 117.12 221.675C117.764 224.643 119.052 227.336 119.862 230.209C120.424 229.972 120.197 229.471 120.185 229.108C120.13 227.3 120.29 225.509 120.485 223.717C120.527 223.338 120.51 222.82 120.97 222.823C121.528 222.827 121.287 223.396 121.35 223.73C121.57 224.889 121.774 226.052 122.006 227.336C122.599 226.664 122.895 225.827 123.826 225.255C123.971 227.323 124.041 229.266 123.618 231.325C120.845 231.743 118.054 231.721 115.267 231.802C112.097 231.894 108.927 231.967 105.648 232.006C105.49 231.676 105.485 231.398 105.8 231.114Z" fill="#090A09"/>
<path d="M105.813 230.962C105.799 231.3 105.706 231.538 105.577 231.87C104.745 231.556 104.038 232.402 103.138 232.153C101.894 232.563 100.733 232.322 99.4543 232.322C99.1682 232.274 99.0131 232.252 98.7904 232.275C98.6788 232.372 98.6348 232.425 98.5165 232.406C94.9114 232.432 91.3804 232.529 87.7192 232.608C88.2048 231.154 89.5461 229.965 90.7376 229.815C91.8869 229.672 93.058 229.511 94.2161 229.277C95.4342 229.032 95.906 227.54 97.2548 227.497C97.3703 227.493 97.6277 226.946 97.5523 226.76C97.0246 225.453 97.8303 224.712 98.6746 224.012C99.1578 223.612 98.8287 222.911 99.4379 222.577C99.2281 225.109 98.3663 227.46 97.5066 229.909C98.0143 229.299 98.5455 228.706 99.0235 228.073C99.5353 227.395 100.113 226.763 100.458 225.964C100.789 225.198 101.177 224.457 101.705 223.75C101.924 225.362 101.337 226.853 100.826 228.284C100.497 229.206 100.717 229.222 101.451 229.239C102.517 229.264 103.354 228.72 104.208 228.211C105.185 227.627 105.698 227.743 105.618 229.028C105.58 229.635 105.485 230.265 105.813 230.962Z" fill="#090A09"/>
<path d="M133.075 217.052C134.021 217.803 134.586 220.328 133.968 221.421C133.712 221.874 133.589 222.302 133.664 222.755C134.112 225.481 133.978 228.2 133.64 231.043C130.583 231.286 127.529 231.407 124.343 231.504C124.433 230.165 125.003 229.173 126.428 228.836C127.06 228.687 126.977 228.055 127.075 227.549C127.249 226.663 126.617 225.836 126.876 224.851C127.557 225.514 127.266 226.491 128.059 227.292C130.607 223.394 130.308 219.19 130.001 214.985C130.641 215.829 130.989 217.43 131.073 219.739C131.133 221.389 130.832 223.07 131.568 224.956C132.556 222.845 133.728 221.039 133.254 218.725C133.15 218.218 133.132 217.693 133.075 217.052Z" fill="#090A09"/>
<path d="M186.712 227.418C186.868 225.871 188.146 224.709 188.117 223.023C188.107 222.48 188.792 222.836 188.976 223.082C189.339 223.567 189.578 224.144 189.926 224.791C191.087 223.17 192.013 221.484 192.72 219.628C193.456 217.695 192.947 215.699 193.374 213.705C194.209 215.618 195.516 217.241 196.438 219.054C197.429 221.002 197.04 223.034 195.695 224.818C195.409 225.196 195.152 225.596 194.867 226.037C194.639 226.851 194.02 226.895 193.383 226.941C191.198 227.098 189.014 227.268 186.712 227.418Z" fill="#090A09"/>
<path d="M180.982 227.842C180.709 226.967 181.156 226.361 181.784 225.894C184.802 223.654 185.856 220.191 187.331 216.996C187.497 216.636 187.412 216.16 187.446 215.618C187.495 215.462 187.542 215.426 187.66 215.443C187.91 218.725 187.303 221.854 186.526 224.961C186.317 225.793 185.901 226.528 185.443 227.349C183.989 227.583 182.55 227.718 180.982 227.842Z" fill="#090A09"/>
<path d="M71.1135 233.195C70.9858 233.062 70.9859 232.951 70.9863 232.755C73.2636 230.634 76.1957 229.467 78.3853 227.194C78.2039 228.381 78.0554 229.574 77.8292 230.752C77.6853 231.501 77.1025 232.396 78.6454 232.163C78.9071 232.124 78.964 232.457 78.9874 232.803C76.4067 233.01 73.824 233.112 71.1135 233.195Z" fill="#090A09"/>
<path d="M79.7087 232.905C80.4132 231.209 82.1468 230.284 83.108 228.704C83.3017 228.386 83.6184 228.139 83.7935 227.814C83.9607 227.503 83.7809 226.914 84.2449 226.873C84.8019 226.825 84.9735 227.411 85.1546 227.827C85.7896 229.284 85.7174 230.86 85.8632 232.525C83.854 232.74 81.847 232.83 79.7087 232.905Z" fill="#090A09"/>
<path d="M146.821 230.554C146.858 230.48 146.904 230.464 147.022 230.463C147.05 230.579 147.007 230.679 146.963 230.779C146.919 230.723 146.874 230.668 146.821 230.554Z" fill="#090A09"/>
<path d="M145.966 230.647C145.981 230.572 146.025 230.551 146.138 230.546C146.172 230.662 146.179 230.831 145.966 230.647Z" fill="#090A09"/>
<path d="M0.437459 248.27C0.452536 248.295 0.422379 248.246 0.437459 248.27Z" fill="#090A09"/>
<path d="M21.4853 265.857C21.4598 265.868 21.4327 265.877 21.4428 265.869C21.4799 265.853 21.4838 265.855 21.4853 265.857Z" fill="#090A09"/>
<path d="M44.3936 154.867C44.4217 154.813 44.4715 154.807 44.5887 154.834C44.5758 154.883 44.4955 154.899 44.3936 154.867Z" fill="#090A09"/>
<path d="M11.6222 240.26C11.6459 240.247 11.5985 240.274 11.6222 240.26Z" fill="#090A09"/>
<path d="M190.219 48.3765C190.584 48.7719 190.859 49.1882 191.245 49.4261C194.224 51.2648 195.354 54.4004 196.819 57.3007C196.895 57.4503 196.865 57.6532 196.909 58.0567C195.934 57.6112 195.009 57.5776 193.991 57.3842C193.771 57.4146 193.672 57.4572 193.608 57.583C195.713 59.3634 197.379 61.403 198.65 63.7654C198.868 64.1701 199.275 64.4952 199.131 65.1346C199.099 65.184 199.131 65.1278 199.115 65.1546C198.15 64.3849 196.967 64.3464 195.853 64.0983C195.752 64.2174 195.651 64.3366 195.549 64.4557C195.877 64.6488 196.224 64.8153 196.53 65.0392C199.123 66.9422 200.279 69.7493 201.306 72.6413C201.558 73.3497 201.479 73.6587 200.644 73.3895C199.932 73.16 199.205 72.9778 198.317 72.7276C198.931 74.0536 198.259 74.0566 197.288 73.9126C196.562 73.805 195.807 73.8913 194.624 73.8913C196.595 75.0871 198.185 76.0662 199.791 77.0193C200.59 77.4938 200.214 77.6403 199.531 77.8108C198.968 78.0448 198.574 77.7897 198.282 77.5088C197.21 76.4789 195.902 75.9904 194.401 75.6479C194.066 74.8568 193.56 74.403 192.852 74.1259C191.048 73.4198 189.323 72.4837 187.15 72.3243C188.112 71.3246 189.185 71.6757 190.153 71.562C190.923 71.4714 192.141 71.9836 192.355 71.2532C192.561 70.5457 191.418 69.9553 190.781 69.4113C188.599 67.5464 185.903 66.9487 183.186 66.4198C182.961 66.376 182.74 66.3088 182.52 66.2436C182.502 66.2383 182.505 66.1638 182.498 66.1203C182.539 65.8623 182.766 65.8465 182.931 65.8657C185.662 66.1848 188.302 65.2743 191.008 65.2796C191.966 65.2815 192.147 65.0667 191.671 64.105C190.897 62.5428 189.333 62.4347 188.046 61.8373C186.852 61.2828 185.495 61.0846 184.329 60.1401C185.428 59.517 186.517 59.3945 187.626 59.6806C188.621 59.9372 189.617 59.7931 190.611 59.8334C190.826 59.8421 191.133 59.7858 191.245 59.6412C191.475 59.3424 191.157 59.129 190.976 58.9311C189.774 57.6192 188.396 56.5438 186.749 55.8422C186.48 55.7276 186.145 55.6477 186.161 55.3207C186.18 54.9308 186.558 55.0083 186.828 54.9767C187.063 54.9492 187.339 54.9868 187.524 54.8753C187.964 54.6103 188.598 54.4585 188.734 53.9451C188.89 53.3533 188.27 53.0369 187.884 52.7368C186.936 51.9983 185.836 51.5062 184.66 51.2796C183.242 51.0066 181.983 50.1536 180.249 50.3522C180.788 49.6568 181.302 49.8065 181.715 49.8423C183.202 49.9711 184.644 49.569 186.115 49.5364C186.784 49.5216 186.963 49.2115 186.686 48.614C186.366 47.9233 186.058 47.2266 185.725 46.5422C184.303 43.6178 183.922 40.2804 182.139 37.4998C181.805 36.9801 181.531 36.4043 181.118 35.958C180.415 35.1991 180.136 34.5135 180.88 33.5935C181.408 32.9407 181.21 32.2598 180.612 31.6874C180.096 31.1928 179.639 30.628 179.084 30.1851C178.081 29.3858 177.679 28.3086 177.457 27.1117C176.499 21.9503 173.328 18.6144 168.62 16.4226C169.305 15.2387 170.291 15.7346 171.35 15.9357C173.196 16.6402 174.982 17.5374 175.923 19.0935C177.578 21.8285 180.157 23.3636 182.592 25.1376C182.899 25.3615 183.194 25.6036 183.484 25.8503C183.545 25.9022 183.557 26.0114 183.651 26.2357C182.304 26.3334 181.011 26.4313 179.575 26.4177C183.926 28.0974 186.869 31.1242 188.658 35.4592C187.418 35.3665 186.293 35.2826 184.815 35.1722C187.079 37.5045 190.357 38.3671 191.51 41.4505C190.331 41.2912 189.209 41.0611 187.978 40.8053C187.789 40.8339 187.701 40.8676 187.642 40.9413C188.081 41.8233 188.897 42.183 189.607 42.6078C192.082 44.0875 193.136 46.579 194.523 49.1658C193.082 48.8158 191.874 48.5225 190.553 48.2101C190.362 48.2475 190.274 48.288 190.219 48.3765Z" fill="#090A09"/>
<path d="M200.357 116.701C200.587 116.889 200.722 117.046 200.865 117.28C200.967 118.476 201.655 119.286 202.402 120.133C202.951 120.851 203.403 121.551 203.886 122.348C203.772 122.994 203.854 123.476 204.432 123.845C205.199 125.292 205.869 126.732 206.546 128.28C206.5 128.44 206.446 128.493 206.295 128.602C205.317 128.423 204.674 127.795 203.864 127.244C203.507 127.179 203.281 127.059 203.003 126.826C201.952 125.787 201.112 124.704 200.334 123.458C199.557 121.662 198.009 120.85 196.233 121.247C195.434 121.425 194.634 121.373 193.836 121.321C193.492 121.299 193.226 121.053 193.066 120.752C192.826 120.302 193.31 120.233 193.49 119.997C194.585 118.562 196.329 118.019 197.732 116.853C197.751 116.537 197.692 116.315 197.549 116.03C197.509 115.953 197.473 115.906 197.451 115.886C197.39 115.836 197.35 115.806 197.266 115.717C197.22 115.658 197.186 115.619 197.166 115.602C197.105 115.552 197.064 115.519 196.975 115.422C195.955 114.514 195.012 113.785 193.529 114.151C192.39 114.432 191.511 113.517 190.407 112.952C191.544 111.851 193.07 111.604 194.186 110.705C194.442 110.499 194.746 110.349 195.039 110.193C195.995 109.686 195.815 109.12 195.101 108.575C194.537 108.144 193.964 107.704 193.336 107.381C192.223 106.807 191.646 105.735 190.87 104.856C190.237 104.139 190.836 103.755 191.449 103.489C192.173 103.175 193.065 103.29 193.691 102.526C193.643 102.337 193.593 102.23 193.543 102.021C193.503 101.939 193.466 101.887 193.443 101.865C193.382 101.813 193.344 101.784 193.262 101.698C193.219 101.641 193.182 101.598 193.16 101.58C193.098 101.53 193.058 101.499 192.975 101.404C192.377 100.093 190.998 99.7574 190.071 98.7116C190.969 98.2217 191.843 97.7175 192.743 97.2621C193.642 96.8064 193.638 96.2459 192.998 95.5869C190.872 93.398 188.551 91.5087 185.518 90.7017C185.076 90.584 184.39 90.4505 184.481 89.927C184.585 89.3289 185.28 89.6536 185.714 89.6151C186.28 89.5649 186.854 89.6114 187.424 89.5998C187.745 89.5934 188.145 89.6613 188.238 89.2238C188.32 88.8352 188.019 88.6407 187.727 88.4549C185.701 87.1663 184.148 85.1743 181.745 84.4384C181.491 84.3606 181.19 84.184 181.311 83.8206C181.381 83.6119 181.603 83.6361 181.795 83.6629C185.2 84.1369 188.623 83.7526 192.169 83.8742C192.628 83.7131 192.962 83.625 193.457 83.8628C193.209 84.3832 193.265 84.5822 193.819 84.8279C195.073 85.3833 196.475 85.8267 197.461 86.7119C199.062 88.1489 200.937 89.4685 201.5 91.7654C201.605 92.1963 201.793 92.5602 202.187 92.921C202.216 92.9519 202.139 92.9466 202.178 92.9469C200.772 93.224 199.255 92.4919 197.704 93.0121C196.686 93.3534 195.572 93.3969 194.514 93.6342C194.021 93.745 194.469 93.9378 194.615 94.1637C195.396 95.1869 196.168 96.0104 197.475 96.0968C198.604 96.1715 199.322 97.0289 200.029 97.7461C200.615 98.3401 200.322 99.0601 199.748 99.6274C199.317 100.054 198.741 100.123 198.118 100.371C197.412 100.459 196.79 100.436 196.183 100.521C195.677 100.591 196.096 100.803 196.242 101.018C196.593 102.372 197.306 103.589 196.729 105.008C196.502 105.564 196.669 106.247 197.142 106.722C198.507 108.092 198.065 109.534 197.349 111.128C198.029 111.043 198.707 110.888 199.384 111.004C200.31 111.162 201.034 111.631 201.103 112.612C201.164 113.479 201.01 114.358 199.856 114.501C199.11 114.593 199.25 115.131 199.392 115.571C199.538 116.024 199.876 116.378 200.357 116.701Z" fill="#090A09"/>
<path d="M171.403 15.8497C170.636 16.6191 169.597 15.614 168.659 16.3021C167.369 15.9716 166.187 15.5253 165.299 14.6451C163.626 12.9859 161.459 12.1439 159.498 10.9622C157.681 9.86768 156.136 8.42955 154.538 7.05723C154.18 6.75015 153.821 6.40268 153.4 6.21856C148.532 4.09286 143.503 2.69873 138.125 2.88775C137.253 2.9184 136.48 3.30816 135.692 3.45573C133.249 3.91328 131.158 5.14303 128.902 6.00265C127.433 6.56228 126.086 7.00228 125.307 8.49438C124.499 10.0439 122.836 10.1671 121.434 10.2744C119.428 10.428 117.696 10.8811 115.797 11.7103C113.703 12.624 112.018 14.2779 109.686 14.8279C108.88 15.0182 107.945 16.2656 107.069 17.03C106.783 17.2796 106.5 17.5349 106.199 17.7647C105.255 18.4836 104.587 19.6182 103.108 19.5047C102.62 19.4673 102.185 20.0328 101.779 20.4726C100.565 21.7889 99.5056 23.2916 97.8475 24.1438C97.6541 24.2432 97.3633 24.5007 97.39 24.6278C97.7193 26.1989 95.9619 26.7759 95.7605 28.1306C95.6572 28.8253 94.8591 28.7321 94.3093 28.5466C93.549 28.2902 93.0877 28.4273 93.024 29.2906C92.9382 30.4524 92.0889 31.1186 91.2181 31.504C88.6969 32.6201 86.0431 33.1238 83.2592 32.7186C82.5108 32.6097 81.7372 32.6734 80.8444 32.6578C80.444 32.4904 80.3349 32.2301 80.2811 31.8231C81.1117 31.3628 81.954 31.0105 82.9021 30.6629C83.1589 30.6593 83.3052 30.6318 83.5052 30.521C83.9675 30.4336 84.3646 30.3834 84.8816 30.3467C85.1602 30.364 85.3106 30.3354 85.5098 30.2022C86.0723 30.0256 86.5706 29.8932 87.1794 29.7736C88.2389 29.9814 89.0989 29.5748 90.0721 29.3294C94.3762 24.626 98.8527 20.2528 103.787 16.3515C106.861 13.9212 110.237 11.9547 113.57 9.94276C115.392 8.84244 117.324 7.7335 119.545 7.47971C119.893 7.43992 120.189 7.31457 120.441 7.08395C122.818 4.91376 125.742 3.905 128.716 2.81943C133.145 1.2024 137.641 0.476391 142.305 0.672061C146.518 0.84877 150.32 2.27876 154.114 4.13548C158.985 6.51914 162.71 10.2606 166.777 13.6204C167.122 13.9052 167.489 14.184 167.895 14.2008C169.275 14.2581 170.265 15.1001 171.403 15.8497Z" fill="#090A09"/>
<path d="M56.8347 77.0375C57.5524 75.9119 58.2953 74.867 59.0431 73.8257C59.6895 72.9256 60.141 72.0364 60.0361 70.8117C59.9563 69.8797 60.01 69.4147 58.6602 70.4746C60.1871 66.6915 61.589 63.4656 65.3818 62.1912C66.1453 61.9347 66.936 61.6919 67.7311 61.6117C69.1966 61.464 70.3492 60.9318 71.0169 59.4362C71.2117 58.8885 71.5979 58.8422 72.0839 58.7768C73.2519 58.5072 73.9273 57.702 74.7057 57.0158C76.2936 55.6157 78.3873 54.6061 79.8546 52.9727C80.6665 53.2672 81.5991 55.5877 82.3956 55.9963C82.3956 57.0896 82.5088 56.4801 81.0682 57.6801C80.003 58.5675 80.1579 59.0456 81.2943 59.8605C82.515 60.7358 83.0084 62.0617 82.9546 63.461C82.8995 64.895 82.2601 66.1527 80.7384 66.645C80.2268 66.8104 79.9824 67.0797 79.7878 67.575C79.5481 68.1853 79.1621 68.7449 78.794 69.2961C78.4342 69.8348 77.7807 70.1142 77.3164 69.7432C76.761 69.2996 77.3933 68.8287 77.6867 68.462C78.7562 67.125 79.4148 65.9019 78.2371 64.1337C77.0132 62.2961 77.2535 60.1787 77.9709 58.1145C78.1677 57.5484 78.7292 56.5664 78.162 56.3482C77.4167 56.0615 77.1048 57.1614 76.81 57.7254C75.872 59.5198 74.5891 61.0513 73.2276 62.4915C71.5298 64.2872 69.14 64.6188 66.8393 64.9513C65.5578 65.1365 64.4992 65.3664 63.8846 66.7088C63.404 67.7586 62.1916 68.4133 62.1138 69.7166C62.0958 70.0175 61.9463 70.4398 62.3767 70.5816C62.69 70.6848 62.8719 70.3699 63.076 70.1844C64.2001 69.163 65.1396 67.9545 66.4196 67.0847C67.3148 66.4763 68.3218 66.2242 69.3103 65.9101C70.1172 65.6537 70.681 66.0672 71.0267 66.8066C71.5293 67.8815 72.0372 68.954 72.6214 70.0888C72.8925 70.7489 72.6104 71.0985 71.981 71.298C70.425 72.1354 69.8057 73.867 68.3022 74.6795C67.7793 74.9621 67.2776 75.598 66.6768 75.0224C66.1565 74.5239 66.4202 73.9194 66.7564 73.3381C67.3263 72.3525 67.8299 71.3274 68.3362 70.3065C68.5587 69.8579 68.9042 69.402 68.5353 68.8591C68.4357 68.8725 68.2931 68.8537 68.2664 68.9008C66.6294 71.7864 63.7028 73.091 61.1327 74.8694C59.8771 75.7383 59.0009 77.1502 58.2534 78.508C57.4596 79.9502 56.7383 81.4544 56.6284 83.1696C56.5931 83.7206 56.3057 84.2553 56.1173 84.9067C54.9002 84.73 55.2296 83.8343 55.4251 83.1068C55.6974 82.0933 55.7108 81.1555 55.167 80.143C55.2723 79.2437 55.608 78.5602 56.1316 77.8625C56.5811 77.7305 56.821 77.5226 56.8347 77.0375Z" fill="#090A09"/>
<path d="M114.857 111.575C110.744 114.262 106.402 116.084 101.691 117.081C98.0014 117.861 94.2528 118.074 90.5246 118.484C88.3934 118.718 86.7028 120.054 84.7237 120.654C84.4801 120.728 84.2624 120.887 83.8749 121.089C85.2772 118.826 84.776 116.408 83.2119 114.374C81.2591 111.834 78.3872 110.749 75.8808 109.079C75.3225 108.707 75.1542 109.305 74.8514 109.521C71.3239 112.031 67.5639 112.892 63.4007 111.251C58.8242 109.447 56.1875 105.458 56.4018 100.56C56.4455 99.5618 56.5392 98.5661 56.5961 97.4315C57.9681 97.3775 58.807 97.8468 58.4192 99.491C58.249 100.213 58.4892 101.024 58.3741 101.768C57.7261 105.961 63.1373 110.736 67.2395 110.221C69.1371 109.983 70.7506 109.04 72.4029 108.279C75.7956 106.716 78.6111 107.391 81.1458 109.921C83.1974 111.968 85.6012 113.677 87.1685 116.192C87.5938 116.875 88.2917 116.898 88.955 116.733C93.5512 115.585 98.2638 115.094 102.913 114.246C106.178 113.651 109.143 112.256 112.184 111.051C113.032 110.714 113.869 110.398 114.924 110.489C115.36 110.862 115.188 111.186 114.857 111.575Z" fill="#090A09"/>
<path d="M194.314 75.6842C196.477 75.17 197.775 76.701 199.361 77.8185C199.49 78.1787 199.766 78.2679 200.046 78.4656C200.143 79.0466 200.867 79.1097 200.87 79.7586C200.904 80.0641 200.944 80.2671 201.014 80.5697C200.908 81.0739 201.065 81.5476 200.678 81.9879C200.136 82.0641 199.671 82.0641 199.147 82.0641C199.908 83.0817 199.599 83.6503 198.443 83.7155C196.832 83.8063 195.259 84.2634 193.624 84.0571C193.364 83.7349 193.061 83.5737 192.944 83.1257C192.913 83.0316 192.896 82.9999 192.885 82.9855C192.777 82.8722 192.74 82.753 192.818 82.5398C191.575 80.6897 189.49 80.0284 187.355 78.7235C188.616 78.7235 189.485 78.7382 190.353 78.7203C191.821 78.69 193.738 77.2594 194.314 75.6842Z" fill="#090A09"/>
<path d="M80.171 31.733C80.5655 31.8629 80.701 32.1083 80.7098 32.5454C80.6133 34.4916 78.694 34.8245 77.8561 36.1131C76.0839 38.839 76.2504 42.6506 78.5608 44.9621C79.0985 45.5001 79.6286 46.0459 80.1777 46.5719C80.5887 46.9655 80.8659 47.371 80.4615 48.031C78.9269 47.5581 77.8123 46.388 76.4321 45.6204C75.0745 44.8653 74.617 43.4136 74.3455 41.9127C73.4412 36.9134 75.3497 33.4944 80.171 31.733Z" fill="#090A09"/>
<path d="M56.6154 97.1926C56.5824 97.2937 56.481 97.3596 56.459 97.3812C55.7306 98.3105 55.3731 98.0464 55.0786 97.0669C54.6328 95.5843 54.9829 94.2583 55.6783 92.9585C55.9217 92.5035 56.1227 92.0258 56.3317 91.4576C61.9036 91.0083 66.9192 93.0448 71.928 95.0919C72.3299 95.2562 72.997 95.3783 72.8525 95.994C72.703 96.6313 72.0997 96.8187 71.4789 96.7412C69.9007 96.5442 68.4249 95.9929 67.0777 95.1847C65.5965 94.2961 63.9846 93.7286 62.4016 93.0978C60.9856 92.5335 59.6888 92.8995 58.6753 94.0504C57.866 94.9695 56.9325 95.8176 56.6154 97.1926Z" fill="#090A09"/>
<path d="M200.222 123.37C201.608 124.115 202.096 125.583 203.156 126.648C203.391 126.962 203.505 127.246 203.682 127.599C204.5 128.936 205.271 130.195 206.029 131.557C205.12 131.404 204.228 131.13 203.324 130.9C202.887 130.789 202.397 130.608 202.058 131.263C200.757 130.736 199.538 131.501 198.287 131.539C197.832 131.553 197.266 131.895 197.008 131.36C196.717 130.757 197.403 130.621 197.74 130.332C198.209 129.93 198.642 129.483 199.135 129.115C200.676 127.962 200.667 127.432 199.044 126.45C198.841 126.327 198.632 126.213 198.367 126.018C198.231 125.591 198.229 125.25 198.527 124.866C198.594 124.786 198.6 124.792 198.597 124.789C198.753 124.64 198.906 124.486 199.113 124.271C199.388 123.818 199.665 123.491 200.222 123.37Z" fill="#090A09"/>
<path d="M55.1204 80.1066C56.3839 80.7752 56.2527 81.8265 55.8832 82.9347C55.6634 83.5938 55.3473 84.2565 56.0215 84.9537C55.303 86.1996 54.3232 87.4989 55.2778 88.8638C55.7995 89.6099 56.1508 90.313 56.352 91.2665C54.9942 91.4315 53.7206 91.112 52.486 90.5637C51.9999 90.3478 51.6142 90.0626 51.7447 89.5111C52.0182 88.355 52.3341 87.1017 53.205 86.3359C53.775 85.8347 53.8851 85.4175 53.8923 84.8052C53.9116 83.1727 54.2204 81.6115 55.1204 80.1066Z" fill="#090A09"/>
<path d="M114.876 111.675C114.855 111.328 114.94 111.008 115.035 110.589C117.687 108.791 118.252 109.014 118.719 112.006C118.821 112.655 118.786 113.331 118.762 113.993C118.717 115.24 118.634 116.485 118.522 117.83C118.06 117.685 117.61 117.595 117.012 117.667C116.257 115.684 115.62 113.693 114.876 111.675Z" fill="#090A09"/>
<path d="M71.8682 71.4017C72.3066 71.0955 72.4142 70.6642 72.663 70.2322C73.3822 69.8105 74.0517 69.441 74.7512 69.1414C75.2611 68.923 75.734 69.1025 75.4441 69.7014C74.7575 71.1197 73.6043 72.2203 72.5931 73.4051C72.2874 73.7633 71.8802 73.4599 71.8581 72.9573C71.8372 72.4819 71.8575 72.0046 71.8682 71.4017Z" fill="#090A09"/>
<path d="M200.785 134.239C200.752 135.22 201.234 135.766 202.175 135.926C202.623 136.002 203.025 136.079 203.163 136.7C201.659 136.802 200.14 136.809 198.622 136.793C198.241 136.789 197.774 136.709 197.655 136.336C197.506 135.866 198.059 135.744 198.337 135.566C199.09 135.083 199.897 134.685 200.785 134.239Z" fill="#090A09"/>
<path d="M83.866 225.45C84.1011 224.208 84.335 223.083 84.5689 221.957C85.2376 223.297 84.9838 224.594 84.619 225.883C84.5538 226.114 84.3553 226.313 84.0827 226.189C83.832 226.075 83.8811 225.796 83.866 225.45Z" fill="#090A09"/>
<path d="M210.89 175.253C211.568 175.577 212.187 175.807 212.76 176.118C213.178 176.346 213.364 176.808 213.056 177.191C212.746 177.575 212.484 177.127 212.262 176.938C211.655 176.423 210.808 176.249 210.324 175.562C210.185 175.364 210.022 175.142 210.32 174.998C210.427 174.946 210.644 175.121 210.89 175.253Z" fill="#090A09"/>
<path d="M198.484 124.786C198.55 125.125 198.506 125.465 198.384 125.874C197.363 125.818 196.576 126.413 195.569 126.517C195.419 126.472 195.382 126.423 195.398 126.297C196.376 125.642 197.219 124.897 198.484 124.786Z" fill="#090A09"/>
<path d="M195.35 126.233C195.452 126.271 195.453 126.321 195.455 126.446C195.146 127.421 194.284 127.201 193.434 127.611C193.879 126.623 194.644 126.544 195.35 126.233Z" fill="#090A09"/>
<path d="M82.3956 50.5299C81.8555 50.856 80.8176 53.6828 80.209 53.8097C79.6368 53.8097 79.8926 50.9492 80.209 50.5299C80.578 50.4872 82.2929 50.0217 82.3956 50.5299Z" fill="#090A09"/>
<path d="M192.867 83.1055C193.236 83.1776 193.392 83.4598 193.565 83.8559C193.615 83.9429 193.596 83.9521 193.595 83.9636C193.271 83.9438 192.949 83.9124 192.465 83.8776C192.476 83.6425 192.648 83.4109 192.867 83.1055Z" fill="#090A09"/>
<path d="M187.801 215.437C187.731 215.496 187.59 215.497 187.519 215.497C187.481 215.159 187.354 214.608 187.797 214.624C188.176 214.638 187.985 215.098 187.801 215.437Z" fill="#090A09"/>
<path d="M133.076 216.831C132.735 216.752 132.472 216.525 132.575 216.092C132.584 216.055 132.738 216.007 132.787 216.034C133.064 216.185 133.06 216.467 133.076 216.831Z" fill="#090A09"/>
<path d="M197.498 116.045C197.785 116.111 198.076 116.261 197.841 116.717C197.517 116.636 197.473 116.401 197.498 116.045Z" fill="#090A09"/>
<path d="M199.079 124.228C199.148 124.474 199.077 124.7 198.686 124.776C198.618 124.528 198.698 124.309 199.079 124.228Z" fill="#090A09"/>
<path d="M193.498 102.013C193.577 102.054 193.651 102.17 193.727 102.357C193.651 102.314 193.572 102.2 193.498 102.013Z" fill="#090A09"/>
<path d="M192.822 82.501C192.88 82.5762 192.879 82.6894 192.876 82.8868C192.668 82.8702 192.605 82.733 192.822 82.501Z" fill="#090A09"/>
<path d="M192.982 212.997C192.986 212.928 193.023 212.89 193.06 212.852C193.045 212.911 193.03 212.97 192.982 212.997Z" fill="#090A09"/>
<path d="M197.239 115.707C197.289 115.678 197.345 115.716 197.408 115.821C197.356 115.855 197.299 115.819 197.239 115.707Z" fill="#090A09"/>
<path d="M196.947 115.411C196.998 115.385 197.056 115.429 197.124 115.538C197.07 115.571 197.009 115.53 196.947 115.411Z" fill="#090A09"/>
<path d="M193.236 101.689C193.286 101.659 193.34 101.696 193.401 101.798C193.349 101.833 193.293 101.798 193.236 101.689Z" fill="#090A09"/>
<path d="M192.947 101.392C192.998 101.367 193.053 101.41 193.118 101.516C193.063 101.55 193.004 101.511 192.947 101.392Z" fill="#090A09"/>
<path d="M210.204 180.724C210.219 180.748 210.189 180.7 210.204 180.724Z" fill="#090A09"/>
<path d="M220.938 185.999C220.512 185.973 220.099 185.826 219.58 185.649C219.486 184.743 219.499 183.865 219.533 182.852C220.106 183.094 220.659 183.473 221.282 183.925C221.219 184.625 221.085 185.251 220.938 185.999Z" fill="#090A09"/>
<path d="M206.307 132.274C206.624 132.701 206.9 133.224 207.181 133.848C206.078 133.891 205.916 133.28 206.307 132.274Z" fill="#090A09"/>
<path d="M207.34 134.38C207.513 134.486 207.637 134.695 207.765 134.997C207.428 135.03 207.202 134.882 207.34 134.38Z" fill="#090A09"/>
<path d="M210.082 145.458C210.305 145.391 210.637 145.418 210.494 145.718C210.392 145.931 210.202 145.681 210.082 145.458Z" fill="#090A09"/>
<path d="M205.186 213.204C205.306 213.304 205.537 213.378 205.291 213.578C205.255 213.502 205.219 213.427 205.176 213.284C205.17 213.218 205.18 213.208 205.186 213.204Z" fill="#090A09"/>
<path d="M214.036 217.961C213.947 218.065 213.821 218.067 213.599 218.071C213.492 217.593 213.69 217.599 214.036 217.961Z" fill="#090A09"/>
<path d="M210.017 145.416C209.966 145.374 209.94 145.307 209.915 145.24C209.954 145.246 209.992 145.252 210.061 145.299C210.092 145.339 210.043 145.391 210.017 145.416Z" fill="#090A09"/>
<path d="M220.844 189.286C220.928 189.246 221.093 189.192 220.965 189.426C220.917 189.456 220.854 189.348 220.844 189.286Z" fill="#090A09"/>
<path d="M98.1464 231.545C98.1538 231.516 98.1234 231.6 98.1234 231.6C98.1234 231.6 98.1389 231.575 98.1464 231.545Z" fill="#090A09"/>
<path d="M98.1613 231.523C98.1629 231.525 98.1517 231.484 98.1518 231.501C98.152 231.519 98.1597 231.521 98.1613 231.523Z" fill="#090A09"/>
<path d="M200.42 116.648C199.152 116.619 198.83 115.777 198.889 114.643C198.912 114.199 199.072 113.812 199.568 114.021C200.702 114.499 200.58 113.556 200.754 113.009C201.047 112.093 200.371 111.611 199.71 111.433C199.015 111.247 198.2 111.123 197.508 111.6C197.266 111.766 197.032 112.001 196.773 111.728C196.505 111.448 196.614 111.146 196.832 110.837C197.805 109.461 197.733 108.225 196.915 106.879C196.437 106.092 195.434 105.186 196.691 104.171C196.781 104.098 196.785 103.723 196.703 103.664C195.78 102.998 196.385 102.097 196.31 101.194C199.584 101.509 201.807 103.52 203.64 106.053C201.478 106.952 199.231 105.237 196.733 105.908C199.387 108.593 201.92 111.098 203.069 114.582C203.316 115.331 203.534 116.09 203.829 117.053C202.451 116.551 201.505 115.695 200.181 115.448C199.821 115.457 199.86 115.622 199.956 115.881C200.126 116.166 200.258 116.365 200.42 116.648Z" fill="#090A09"/>
<path d="M198.15 100.46C198.154 99.6941 198.909 99.849 199.336 99.5309C200.224 98.8689 200.233 98.2003 199.334 97.5466C198.516 96.9514 197.784 96.3777 196.616 96.3998C195.544 96.4201 195.094 95.3351 194.672 94.3474C198.339 95.1339 200.798 97.4935 202.699 100.682C201.135 100.978 199.717 100.427 198.15 100.46Z" fill="#090A09"/>
<path d="M202.463 120.053C201.126 119.786 200.746 118.76 200.801 117.425C201.391 118.224 201.909 119.09 202.463 120.053Z" fill="#090A09"/>
<path d="M90.0372 29.2716C89.3494 29.9433 88.5219 30.516 87.3519 29.8638C88.1235 29.3921 89.059 29.5177 90.0372 29.2716Z" fill="#090A09"/>
<path d="M200.96 79.8294C200.575 79.5029 200.105 79.2684 200.095 78.622C200.742 78.7702 201.376 79.0217 202.236 79.3627C201.659 79.5751 201.357 79.6864 200.96 79.8294Z" fill="#090A09"/>
<path d="M204.512 123.755C203.49 123.905 203.251 123.454 203.815 122.502C204.109 122.849 204.302 123.254 204.512 123.755Z" fill="#090A09"/>
<path d="M200.701 82.0886C200.644 81.6278 200.48 81.1512 200.949 80.7241C201.398 81.2241 201.992 81.8201 200.701 82.0886Z" fill="#090A09"/>
<path d="M56.737 77.0082C57.5554 77.6375 56.8829 77.682 56.3084 77.8092C56.3542 77.5525 56.5104 77.3068 56.737 77.0082Z" fill="#090A09"/>
<path d="M85.4954 30.1531C85.5061 30.4053 85.469 30.6982 85.0457 30.423C85.1399 30.2896 85.2784 30.2189 85.4954 30.1531Z" fill="#090A09"/>
<path d="M83.4941 30.4698C83.4996 30.724 83.4416 30.9847 83.0503 30.7273C83.1444 30.5971 83.281 30.5264 83.4941 30.4698Z" fill="#090A09"/>
<path d="M209.482 133.949C209.452 133.929 209.417 133.912 209.383 133.896C209.409 133.888 209.435 133.879 209.465 133.917C209.469 133.962 209.477 133.953 209.482 133.949Z" fill="#090A09"/>
<path d="M44.9426 129.374C44.9858 129.416 45.032 129.455 45.0783 129.495C45.0465 129.483 45.0147 129.471 44.9665 129.412C44.9502 129.365 44.9455 129.371 44.9426 129.374Z" fill="#090A09"/>
<path d="M206.459 128.449C206.634 128.612 206.7 128.827 206.259 128.715C206.253 128.609 206.309 128.559 206.459 128.449Z" fill="#090A09"/>
<path d="M55.138 74.3147C55.1126 74.3318 55.0996 74.2672 55.0996 74.2672C55.0996 74.2672 55.1633 74.2976 55.138 74.3147Z" fill="#090A09"/>
<path d="M199.072 65.2242C199.127 65.1681 199.186 65.0949 199.245 65.0217C199.255 65.0444 199.264 65.0671 199.273 65.0899C199.233 65.0944 199.193 65.099 199.11 65.1711C199.068 65.2387 199.077 65.207 199.072 65.2242Z" fill="#090A09"/>
<path d="M61.2584 64.4256C61.2595 64.4289 61.2455 64.3884 61.2488 64.4043C61.2522 64.4201 61.2574 64.4222 61.2584 64.4256Z" fill="#090A09"/>
<path d="M191.434 41.5468C191.509 41.4358 191.599 41.4374 191.627 41.575C191.655 41.7181 191.577 41.7508 191.456 41.5905C191.452 41.5215 191.439 41.5378 191.434 41.5468Z" fill="#090A09"/>
<path d="M219.871 180.499C220.049 180.627 220.167 180.801 219.753 180.713C219.748 180.616 219.782 180.582 219.871 180.499Z" fill="#090A09"/>
<path d="M78.5534 55.7036C78.5655 55.7243 78.5412 55.6829 78.5534 55.7036Z" fill="#090A09"/>
</svg>
